<ttFont>
    <TTGlyph name=".notdef" xMin="50" yMin="0" xMax="450" yMax="700">
      <contour>
        <pt x="50" y="700" on="1"/>
        <pt x="450" y="700" on="1"/>
        <pt x="450" y="0" on="1"/>
        <pt x="50" y="0" on="1"/>
      </contour>
      <contour>
        <pt x="400" y="50" on="1"/>
        <pt x="400" y="650" on="1"/>
        <pt x="100" y="650" on="1"/>
        <pt x="100" y="50" on="1"/>
      </contour>
    </TTGlyph>
    <TTGlyph name="A" xMin="70" yMin="199" xMax="340" yMax="705">
      <contour>
        <pt x="340" y="327" on="1"/>
        <pt x="340" y="262" on="0"/>
        <pt x="271" y="199" on="0"/>
        <pt x="214" y="199" on="1"/>
        <pt x="196" y="199" on="1"/>
        <pt x="139" y="199" on="0"/>
        <pt x="70" y="262" on="0"/>
        <pt x="70" y="327" on="1"/>
        <pt x="70" y="577" on="1"/>
        <pt x="70" y="642" on="0"/>
        <pt x="139" y="705" on="0"/>
        <pt x="196" y="705" on="1"/>
        <pt x="214" y="705" on="1"/>
        <pt x="271" y="705" on="0"/>
        <pt x="340" y="642" on="0"/>
        <pt x="340" y="577" on="1"/>
        <pt x="340" y="327" on="1"/>
      </contour>
      <contour>
        <pt x="266" y="584" on="1"/>
        <pt x="266" y="607" on="0"/>
        <pt x="242" y="641" on="0"/>
        <pt x="214" y="641" on="1"/>
        <pt x="196" y="641" on="1"/>
        <pt x="168" y="641" on="0"/>
        <pt x="144" y="607" on="0"/>
        <pt x="144" y="584" on="1"/>
        <pt x="144" y="320" on="1"/>
        <pt x="144" y="297" on="0"/>
        <pt x="168" y="263" on="0"/>
        <pt x="196" y="263" on="1"/>
        <pt x="214" y="263" on="1"/>
        <pt x="242" y="263" on="0"/>
        <pt x="266" y="297" on="0"/>
        <pt x="266" y="320" on="1"/>
      </contour>
    </TTGlyph>
    <TTGlyph name="AE" xMin="65" yMin="260" xMax="165" yMax="360">
      <contour>
        <pt x="65" y="260" on="1"/>
        <pt x="65" y="360" on="1"/>
        <pt x="165" y="360" on="1"/>
        <pt x="165" y="260" on="1"/>
      </contour>
    </TTGlyph>
    <TTGlyph name="Aacute" xMin="65" yMin="260" xMax="165" yMax="360">
      <contour>
        <pt x="65" y="260" on="1"/>
        <pt x="65" y="360" on="1"/>
        <pt x="165" y="360" on="1"/>
        <pt x="165" y="260" on="1"/>
      </contour>
    </TTGlyph>
    <TTGlyph name="Acircumflex" xMin="65" yMin="260" xMax="165" yMax="360">
      <contour>
        <pt x="65" y="260" on="1"/>
        <pt x="65" y="360" on="1"/>
        <pt x="165" y="360" on="1"/>
        <pt x="165" y="260" on="1"/>
      </contour>
    </TTGlyph>
    <TTGlyph name="Adieresis" xMin="65" yMin="260" xMax="165" yMax="360">
      <contour>
        <pt x="65" y="260" on="1"/>
        <pt x="65" y="360" on="1"/>
        <pt x="165" y="360" on="1"/>
        <pt x="165" y="260" on="1"/>
      </contour>
    </TTGlyph>
    <TTGlyph name="Agrave" xMin="65" yMin="260" xMax="165" yMax="360">
      <contour>
        <pt x="65" y="260" on="1"/>
        <pt x="65" y="360" on="1"/>
        <pt x="165" y="360" on="1"/>
        <pt x="165" y="260" on="1"/>
      </contour>
    </TTGlyph>
    <TTGlyph name="Aring" xMin="65" yMin="260" xMax="165" yMax="360">
      <contour>
        <pt x="65" y="260" on="1"/>
        <pt x="65" y="360" on="1"/>
        <pt x="165" y="360" on="1"/>
        <pt x="165" y="260" on="1"/>
      </contour>
    </TTGlyph>
    <TTGlyph name="Atilde" xMin="65" yMin="260" xMax="165" yMax="360">
      <contour>
        <pt x="65" y="260" on="1"/>
        <pt x="65" y="360" on="1"/>
        <pt x="165" y="360" on="1"/>
        <pt x="165" y="260" on="1"/>
      </contour>
    </TTGlyph>
    <TTGlyph name="B" xMin="94" yMin="205" xMax="341" yMax="700">
      <contour>
        <pt x="102" y="205" on="1"/>
        <pt x="102" y="269" on="1"/>
        <pt x="193" y="269" on="1"/>
        <pt x="193" y="633" on="1"/>
        <pt x="94" y="594" on="1"/>
        <pt x="94" y="662" on="1"/>
        <pt x="185" y="700" on="1"/>
        <pt x="267" y="700" on="1"/>
        <pt x="267" y="269" on="1"/>
        <pt x="341" y="269" on="1"/>
        <pt x="341" y="205" on="1"/>
      </contour>
    </TTGlyph>
    <TTGlyph name="C" xMin="87" yMin="205" xMax="327" yMax="700">
      <contour>
        <pt x="87" y="205" on="1"/>
        <pt x="87" y="278" on="1"/>
        <pt x="199" y="431" on="1"/>
        <pt x="215" y="452" on="0"/>
        <pt x="234" y="481" on="0"/>
        <pt x="245" y="505" on="0"/>
        <pt x="249" y="532" on="0"/>
        <pt x="249" y="551" on="1"/>
        <pt x="249" y="587" on="1"/>
        <pt x="249" y="610" on="0"/>
        <pt x="221" y="636" on="0"/>
        <pt x="188" y="636" on="1"/>
        <pt x="102" y="636" on="1"/>
        <pt x="102" y="700" on="1"/>
        <pt x="181" y="700" on="1"/>
        <pt x="256" y="700" on="0"/>
        <pt x="322" y="643" on="0"/>
        <pt x="322" y="581" on="1"/>
        <pt x="322" y="558" on="1"/>
        <pt x="322" y="527" on="0"/>
        <pt x="316" y="487" on="0"/>
        <pt x="304" y="457" on="0"/>
        <pt x="283" y="428" on="0"/>
        <pt x="268" y="408" on="1"/>
        <pt x="165" y="269" on="1"/>
        <pt x="327" y="269" on="1"/>
        <pt x="327" y="205" on="1"/>
      </contour>
    </TTGlyph>
    <TTGlyph name="Ccedilla" xMin="65" yMin="260" xMax="165" yMax="360">
      <contour>
        <pt x="65" y="260" on="1"/>
        <pt x="65" y="360" on="1"/>
        <pt x="165" y="360" on="1"/>
        <pt x="165" y="260" on="1"/>
      </contour>
    </TTGlyph>
    <TTGlyph name="D" xMin="94" yMin="205" xMax="317" yMax="700">
      <contour>
        <pt x="317" y="324" on="1"/>
        <pt x="317" y="261" on="0"/>
        <pt x="259" y="205" on="0"/>
        <pt x="190" y="205" on="1"/>
        <pt x="94" y="205" on="1"/>
        <pt x="94" y="269" on="1"/>
        <pt x="187" y="269" on="1"/>
        <pt x="213" y="269" on="0"/>
        <pt x="243" y="290" on="0"/>
        <pt x="243" y="319" on="1"/>
        <pt x="243" y="374" on="1"/>
        <pt x="243" y="399" on="0"/>
        <pt x="212" y="426" on="0"/>
        <pt x="188" y="426" on="1"/>
        <pt x="117" y="426" on="1"/>
        <pt x="117" y="490" on="1"/>
        <pt x="180" y="490" on="1"/>
        <pt x="203" y="490" on="0"/>
        <pt x="235" y="516" on="0"/>
        <pt x="235" y="542" on="1"/>
        <pt x="235" y="584" on="1"/>
        <pt x="235" y="613" on="0"/>
        <pt x="209" y="636" on="0"/>
        <pt x="180" y="636" on="1"/>
        <pt x="94" y="636" on="1"/>
        <pt x="94" y="700" on="1"/>
        <pt x="181" y="700" on="1"/>
        <pt x="244" y="700" on="0"/>
        <pt x="310" y="645" on="0"/>
        <pt x="310" y="583" on="1"/>
        <pt x="310" y="548" on="1"/>
        <pt x="310" y="519" on="0"/>
        <pt x="286" y="475" on="0"/>
        <pt x="266" y="461" on="1"/>
        <pt x="290" y="448" on="0"/>
        <pt x="317" y="403" on="0"/>
        <pt x="317" y="369" on="1"/>
        <pt x="317" y="324" on="1"/>
      </contour>
    </TTGlyph>
    <TTGlyph name="Delta" xMin="65" yMin="260" xMax="165" yMax="360">
      <contour>
        <pt x="65" y="260" on="1"/>
        <pt x="65" y="360" on="1"/>
        <pt x="165" y="360" on="1"/>
        <pt x="165" y="260" on="1"/>
      </contour>
    </TTGlyph>
    <TTGlyph name="E" xMin="73" yMin="205" xMax="344" yMax="700">
      <contour>
        <pt x="294" y="322" on="1"/>
        <pt x="294" y="205" on="1"/>
        <pt x="220" y="205" on="1"/>
        <pt x="220" y="322" on="1"/>
        <pt x="73" y="322" on="1"/>
        <pt x="73" y="396" on="1"/>
        <pt x="147" y="700" on="1"/>
        <pt x="216" y="700" on="1"/>
        <pt x="143" y="386" on="1"/>
        <pt x="220" y="386" on="1"/>
        <pt x="227" y="529" on="1"/>
        <pt x="294" y="529" on="1"/>
        <pt x="294" y="386" on="1"/>
        <pt x="344" y="386" on="1"/>
        <pt x="344" y="322" on="1"/>
      </contour>
    </TTGlyph>
    <TTGlyph name="Eacute" xMin="65" yMin="260" xMax="165" yMax="360">
      <contour>
        <pt x="65" y="260" on="1"/>
        <pt x="65" y="360" on="1"/>
        <pt x="165" y="360" on="1"/>
        <pt x="165" y="260" on="1"/>
      </contour>
    </TTGlyph>
    <TTGlyph name="Ecircumflex" xMin="65" yMin="260" xMax="165" yMax="360">
      <contour>
        <pt x="65" y="260" on="1"/>
        <pt x="65" y="360" on="1"/>
        <pt x="165" y="360" on="1"/>
        <pt x="165" y="260" on="1"/>
      </contour>
    </TTGlyph>
    <TTGlyph name="Edieresis" xMin="65" yMin="260" xMax="165" yMax="360">
      <contour>
        <pt x="65" y="260" on="1"/>
        <pt x="65" y="360" on="1"/>
        <pt x="165" y="360" on="1"/>
        <pt x="165" y="260" on="1"/>
      </contour>
    </TTGlyph>
    <TTGlyph name="Egrave" xMin="65" yMin="260" xMax="165" yMax="360">
      <contour>
        <pt x="65" y="260" on="1"/>
        <pt x="65" y="360" on="1"/>
        <pt x="165" y="360" on="1"/>
        <pt x="165" y="260" on="1"/>
      </contour>
    </TTGlyph>
    <TTGlyph name="Eth" xMin="65" yMin="260" xMax="165" yMax="360">
      <contour>
        <pt x="65" y="260" on="1"/>
        <pt x="65" y="360" on="1"/>
        <pt x="165" y="360" on="1"/>
        <pt x="165" y="260" on="1"/>
      </contour>
    </TTGlyph>
    <TTGlyph name="Euro" xMin="65" yMin="260" xMax="165" yMax="360">
      <contour>
        <pt x="65" y="260" on="1"/>
        <pt x="65" y="360" on="1"/>
        <pt x="165" y="360" on="1"/>
        <pt x="165" y="260" on="1"/>
      </contour>
    </TTGlyph>
    <TTGlyph name="F" xMin="94" yMin="205" xMax="322" yMax="700">
      <contour>
        <pt x="322" y="324" on="1"/>
        <pt x="322" y="261" on="0"/>
        <pt x="263" y="205" on="0"/>
        <pt x="195" y="205" on="1"/>
        <pt x="94" y="205" on="1"/>
        <pt x="94" y="269" on="1"/>
        <pt x="192" y="269" on="1"/>
        <pt x="248" y="269" on="0"/>
        <pt x="248" y="321" on="1"/>
        <pt x="248" y="392" on="1"/>
        <pt x="248" y="417" on="0"/>
        <pt x="217" y="445" on="0"/>
        <pt x="193" y="445" on="1"/>
        <pt x="102" y="445" on="1"/>
        <pt x="102" y="700" on="1"/>
        <pt x="312" y="700" on="1"/>
        <pt x="312" y="637" on="1"/>
        <pt x="175" y="637" on="1"/>
        <pt x="175" y="509" on="1"/>
        <pt x="199" y="509" on="1"/>
        <pt x="254" y="509" on="0"/>
        <pt x="322" y="453" on="0"/>
        <pt x="322" y="390" on="1"/>
        <pt x="322" y="324" on="1"/>
      </contour>
    </TTGlyph>
    <TTGlyph name="G" xMin="75" yMin="205" xMax="340" yMax="700">
      <contour>
        <pt x="340" y="333" on="1"/>
        <pt x="340" y="269" on="0"/>
        <pt x="270" y="205" on="0"/>
        <pt x="222" y="205" on="1"/>
        <pt x="193" y="205" on="1"/>
        <pt x="145" y="205" on="0"/>
        <pt x="75" y="269" on="0"/>
        <pt x="75" y="333" on="1"/>
        <pt x="75" y="567" on="1"/>
        <pt x="75" y="632" on="0"/>
        <pt x="143" y="700" on="0"/>
        <pt x="208" y="700" on="1"/>
        <pt x="305" y="700" on="1"/>
        <pt x="305" y="636" on="1"/>
        <pt x="206" y="636" on="1"/>
        <pt x="177" y="636" on="0"/>
        <pt x="148" y="607" on="0"/>
        <pt x="148" y="584" on="1"/>
        <pt x="148" y="520" on="1"/>
        <pt x="212" y="520" on="1"/>
        <pt x="275" y="520" on="0"/>
        <pt x="340" y="462" on="0"/>
        <pt x="340" y="397" on="1"/>
        <pt x="340" y="333" on="1"/>
      </contour>
      <contour>
        <pt x="148" y="456" on="1"/>
        <pt x="148" y="326" on="1"/>
        <pt x="148" y="303" on="0"/>
        <pt x="168" y="269" on="0"/>
        <pt x="197" y="269" on="1"/>
        <pt x="218" y="269" on="1"/>
        <pt x="247" y="269" on="0"/>
        <pt x="267" y="303" on="0"/>
        <pt x="267" y="326" on="1"/>
        <pt x="267" y="404" on="1"/>
        <pt x="267" y="427" on="0"/>
        <pt x="241" y="456" on="0"/>
        <pt x="212" y="456" on="1"/>
      </contour>
    </TTGlyph>
    <TTGlyph name="H" xMin="100" yMin="205" xMax="329" yMax="700">
      <contour>
        <pt x="211" y="205" on="1"/>
        <pt x="137" y="205" on="1"/>
        <pt x="259" y="635" on="1"/>
        <pt x="100" y="635" on="1"/>
        <pt x="100" y="700" on="1"/>
        <pt x="329" y="700" on="1"/>
        <pt x="329" y="619" on="1"/>
      </contour>
    </TTGlyph>
    <TTGlyph name="I" xMin="66" yMin="205" xMax="344" yMax="700">
      <contour>
        <pt x="344" y="324" on="1"/>
        <pt x="344" y="261" on="0"/>
        <pt x="275" y="205" on="0"/>
        <pt x="207" y="205" on="1"/>
        <pt x="203" y="205" on="1"/>
        <pt x="135" y="205" on="0"/>
        <pt x="66" y="261" on="0"/>
        <pt x="66" y="324" on="1"/>
        <pt x="66" y="371" on="1"/>
        <pt x="66" y="437" on="0"/>
        <pt x="114" y="463" on="1"/>
        <pt x="75" y="491" on="0"/>
        <pt x="75" y="550" on="1"/>
        <pt x="75" y="583" on="1"/>
        <pt x="75" y="645" on="0"/>
        <pt x="146" y="700" on="0"/>
        <pt x="203" y="700" on="1"/>
        <pt x="207" y="700" on="1"/>
        <pt x="234" y="700" on="0"/>
        <pt x="281" y="687" on="0"/>
        <pt x="316" y="658" on="0"/>
        <pt x="335" y="614" on="0"/>
        <pt x="335" y="583" on="1"/>
        <pt x="335" y="550" on="1"/>
        <pt x="335" y="491" on="0"/>
        <pt x="296" y="463" on="1"/>
        <pt x="344" y="437" on="0"/>
        <pt x="344" y="371" on="1"/>
        <pt x="344" y="324" on="1"/>
      </contour>
      <contour>
        <pt x="271" y="376" on="1"/>
        <pt x="271" y="401" on="0"/>
        <pt x="244" y="429" on="0"/>
        <pt x="219" y="429" on="1"/>
        <pt x="192" y="429" on="1"/>
        <pt x="167" y="429" on="0"/>
        <pt x="139" y="401" on="0"/>
        <pt x="139" y="376" on="1"/>
        <pt x="139" y="322" on="1"/>
        <pt x="139" y="268" on="0"/>
        <pt x="188" y="268" on="1"/>
        <pt x="216" y="268" on="1"/>
        <pt x="245" y="268" on="0"/>
        <pt x="271" y="293" on="0"/>
        <pt x="271" y="322" on="1"/>
        <pt x="271" y="376" on="1"/>
      </contour>
      <contour>
        <pt x="191" y="637" on="1"/>
        <pt x="165" y="637" on="0"/>
        <pt x="147" y="609" on="0"/>
        <pt x="147" y="583" on="1"/>
        <pt x="147" y="541" on="1"/>
        <pt x="147" y="517" on="0"/>
        <pt x="172" y="494" on="0"/>
        <pt x="193" y="492" on="1"/>
        <pt x="212" y="492" on="1"/>
        <pt x="235" y="492" on="0"/>
        <pt x="263" y="515" on="0"/>
        <pt x="263" y="541" on="1"/>
        <pt x="263" y="583" on="1"/>
        <pt x="263" y="612" on="0"/>
        <pt x="241" y="637" on="0"/>
        <pt x="213" y="637" on="1"/>
      </contour>
    </TTGlyph>
    <TTGlyph name="Iacute" xMin="65" yMin="260" xMax="165" yMax="360">
      <contour>
        <pt x="65" y="260" on="1"/>
        <pt x="65" y="360" on="1"/>
        <pt x="165" y="360" on="1"/>
        <pt x="165" y="260" on="1"/>
      </contour>
    </TTGlyph>
    <TTGlyph name="Icircumflex" xMin="65" yMin="260" xMax="165" yMax="360">
      <contour>
        <pt x="65" y="260" on="1"/>
        <pt x="65" y="360" on="1"/>
        <pt x="165" y="360" on="1"/>
        <pt x="165" y="260" on="1"/>
      </contour>
    </TTGlyph>
    <TTGlyph name="Idieresis" xMin="65" yMin="260" xMax="165" yMax="360">
      <contour>
        <pt x="65" y="260" on="1"/>
        <pt x="65" y="360" on="1"/>
        <pt x="165" y="360" on="1"/>
        <pt x="165" y="260" on="1"/>
      </contour>
    </TTGlyph>
    <TTGlyph name="Igrave" xMin="65" yMin="260" xMax="165" yMax="360">
      <contour>
        <pt x="65" y="260" on="1"/>
        <pt x="65" y="360" on="1"/>
        <pt x="165" y="360" on="1"/>
        <pt x="165" y="260" on="1"/>
      </contour>
    </TTGlyph>
    <TTGlyph name="J" xMin="70" yMin="206" xMax="335" yMax="701">
      <contour>
        <pt x="70" y="573" on="1"/>
        <pt x="70" y="605" on="0"/>
        <pt x="89" y="653" on="0"/>
        <pt x="121" y="685" on="0"/>
        <pt x="164" y="701" on="0"/>
        <pt x="188" y="701" on="1"/>
        <pt x="217" y="701" on="1"/>
        <pt x="241" y="701" on="0"/>
        <pt x="284" y="685" on="0"/>
        <pt x="316" y="653" on="0"/>
        <pt x="335" y="605" on="0"/>
        <pt x="335" y="573" on="1"/>
        <pt x="335" y="339" on="1"/>
        <pt x="335" y="274" on="0"/>
        <pt x="268" y="206" on="0"/>
        <pt x="203" y="206" on="1"/>
        <pt x="105" y="206" on="1"/>
        <pt x="105" y="270" on="1"/>
        <pt x="205" y="270" on="1"/>
        <pt x="234" y="270" on="0"/>
        <pt x="263" y="299" on="0"/>
        <pt x="263" y="322" on="1"/>
        <pt x="263" y="389" on="1"/>
        <pt x="198" y="389" on="1"/>
        <pt x="135" y="389" on="0"/>
        <pt x="70" y="447" on="0"/>
        <pt x="70" y="512" on="1"/>
        <pt x="70" y="573" on="1"/>
      </contour>
      <contour>
        <pt x="263" y="453" on="1"/>
        <pt x="263" y="580" on="1"/>
        <pt x="263" y="603" on="0"/>
        <pt x="242" y="637" on="0"/>
        <pt x="213" y="637" on="1"/>
        <pt x="192" y="637" on="1"/>
        <pt x="163" y="637" on="0"/>
        <pt x="143" y="603" on="0"/>
        <pt x="143" y="580" on="1"/>
        <pt x="143" y="505" on="1"/>
        <pt x="143" y="482" on="0"/>
        <pt x="169" y="453" on="0"/>
        <pt x="198" y="453" on="1"/>
      </contour>
    </TTGlyph>
    <TTGlyph name="K" xMin="102" yMin="137" xMax="448" yMax="483">
      <contour>
        <pt x="275" y="253" on="1"/>
        <pt x="158" y="137" on="1"/>
        <pt x="102" y="193" on="1"/>
        <pt x="218" y="310" on="1"/>
        <pt x="102" y="427" on="1"/>
        <pt x="158" y="483" on="1"/>
        <pt x="275" y="367" on="1"/>
        <pt x="392" y="483" on="1"/>
        <pt x="448" y="427" on="1"/>
        <pt x="332" y="310" on="1"/>
        <pt x="448" y="193" on="1"/>
        <pt x="392" y="137" on="1"/>
      </contour>
    </TTGlyph>
    <TTGlyph name="L" xMin="45" yMin="0" xMax="519" yMax="700">
      <contour>
        <pt x="124" y="0" on="1"/>
        <pt x="124" y="625" on="1"/>
        <pt x="45" y="625" on="1"/>
        <pt x="45" y="700" on="1"/>
        <pt x="519" y="700" on="1"/>
        <pt x="519" y="625" on="1"/>
        <pt x="428" y="625" on="1"/>
        <pt x="428" y="105" on="1"/>
        <pt x="428" y="89" on="0"/>
        <pt x="441" y="75" on="0"/>
        <pt x="461" y="75" on="1"/>
        <pt x="476" y="75" on="1"/>
        <pt x="476" y="0" on="1"/>
        <pt x="426" y="0" on="1"/>
        <pt x="411" y="0" on="0"/>
        <pt x="381" y="10" on="0"/>
        <pt x="357" y="33" on="0"/>
        <pt x="341" y="72" on="0"/>
        <pt x="341" y="100" on="1"/>
        <pt x="341" y="625" on="1"/>
        <pt x="211" y="625" on="1"/>
        <pt x="211" y="0" on="1"/>
      </contour>
    </TTGlyph>
    <TTGlyph name="Lslash" xMin="65" yMin="260" xMax="165" yMax="360">
      <contour>
        <pt x="65" y="260" on="1"/>
        <pt x="65" y="360" on="1"/>
        <pt x="165" y="360" on="1"/>
        <pt x="165" y="260" on="1"/>
      </contour>
    </TTGlyph>
    <TTGlyph name="M" xMin="40" yMin="-170" xMax="425" yMax="700">
      <contour>
        <pt x="40" y="-170" on="1"/>
        <pt x="40" y="-76" on="1"/>
        <pt x="208" y="267" on="1"/>
        <pt x="53" y="605" on="1"/>
        <pt x="53" y="700" on="1"/>
        <pt x="414" y="700" on="1"/>
        <pt x="414" y="625" on="1"/>
        <pt x="141" y="625" on="1"/>
        <pt x="303" y="267" on="1"/>
        <pt x="126" y="-96" on="1"/>
        <pt x="425" y="-96" on="1"/>
        <pt x="425" y="-170" on="1"/>
      </contour>
    </TTGlyph>
    <TTGlyph name="N" xMin="48" yMin="141" xMax="682" yMax="475">
      <contour>
        <pt x="365" y="194" on="1"/>
        <pt x="328" y="141" on="0"/>
        <pt x="249" y="141" on="1"/>
        <pt x="199" y="141" on="1"/>
        <pt x="116" y="141" on="0"/>
        <pt x="48" y="223" on="0"/>
        <pt x="48" y="298" on="1"/>
        <pt x="48" y="318" on="1"/>
        <pt x="48" y="393" on="0"/>
        <pt x="116" y="475" on="0"/>
        <pt x="199" y="475" on="1"/>
        <pt x="249" y="475" on="1"/>
        <pt x="330" y="475" on="0"/>
        <pt x="367" y="422" on="1"/>
        <pt x="404" y="475" on="0"/>
        <pt x="481" y="475" on="1"/>
        <pt x="531" y="475" on="1"/>
        <pt x="614" y="475" on="0"/>
        <pt x="682" y="393" on="0"/>
        <pt x="682" y="318" on="1"/>
        <pt x="682" y="303" on="1"/>
        <pt x="682" y="266" on="0"/>
        <pt x="666" y="206" on="0"/>
        <pt x="630" y="164" on="0"/>
        <pt x="572" y="141" on="0"/>
        <pt x="531" y="141" on="1"/>
        <pt x="481" y="141" on="1"/>
        <pt x="402" y="141" on="0"/>
      </contour>
      <contour>
        <pt x="598" y="338" on="1"/>
        <pt x="596" y="372" on="0"/>
        <pt x="562" y="401" on="0"/>
        <pt x="526" y="401" on="1"/>
        <pt x="479" y="401" on="1"/>
        <pt x="447" y="401" on="0"/>
        <pt x="408" y="364" on="0"/>
        <pt x="406" y="336" on="1"/>
        <pt x="406" y="286" on="1"/>
        <pt x="406" y="256" on="0"/>
        <pt x="445" y="215" on="0"/>
        <pt x="479" y="215" on="1"/>
        <pt x="526" y="215" on="1"/>
        <pt x="564" y="215" on="0"/>
        <pt x="598" y="248" on="0"/>
        <pt x="598" y="286" on="1"/>
      </contour>
      <contour>
        <pt x="132" y="278" on="1"/>
        <pt x="134" y="244" on="0"/>
        <pt x="168" y="215" on="0"/>
        <pt x="204" y="215" on="1"/>
        <pt x="251" y="215" on="1"/>
        <pt x="283" y="215" on="0"/>
        <pt x="322" y="252" on="0"/>
        <pt x="324" y="280" on="1"/>
        <pt x="324" y="330" on="1"/>
        <pt x="324" y="360" on="0"/>
        <pt x="285" y="401" on="0"/>
        <pt x="251" y="401" on="1"/>
        <pt x="204" y="401" on="1"/>
        <pt x="166" y="401" on="0"/>
        <pt x="132" y="368" on="0"/>
        <pt x="132" y="330" on="1"/>
      </contour>
    </TTGlyph>
    <TTGlyph name="Ntilde" xMin="65" yMin="260" xMax="165" yMax="360">
      <contour>
        <pt x="65" y="260" on="1"/>
        <pt x="65" y="360" on="1"/>
        <pt x="165" y="360" on="1"/>
        <pt x="165" y="260" on="1"/>
      </contour>
    </TTGlyph>
    <TTGlyph name="O" xMin="57" yMin="128" xMax="482" yMax="620">
      <contour>
        <pt x="226" y="490" on="1"/>
        <pt x="57" y="355" on="1"/>
        <pt x="57" y="457" on="1"/>
        <pt x="269" y="620" on="1"/>
        <pt x="482" y="457" on="1"/>
        <pt x="482" y="355" on="1"/>
        <pt x="312" y="491" on="1"/>
        <pt x="312" y="128" on="1"/>
        <pt x="226" y="128" on="1"/>
      </contour>
    </TTGlyph>
    <TTGlyph name="OE" xMin="65" yMin="260" xMax="165" yMax="360">
      <contour>
        <pt x="65" y="260" on="1"/>
        <pt x="65" y="360" on="1"/>
        <pt x="165" y="360" on="1"/>
        <pt x="165" y="260" on="1"/>
      </contour>
    </TTGlyph>
    <TTGlyph name="Oacute" xMin="65" yMin="260" xMax="165" yMax="360">
      <contour>
        <pt x="65" y="260" on="1"/>
        <pt x="65" y="360" on="1"/>
        <pt x="165" y="360" on="1"/>
        <pt x="165" y="260" on="1"/>
      </contour>
    </TTGlyph>
    <TTGlyph name="Ocircumflex" xMin="65" yMin="260" xMax="165" yMax="360">
      <contour>
        <pt x="65" y="260" on="1"/>
        <pt x="65" y="360" on="1"/>
        <pt x="165" y="360" on="1"/>
        <pt x="165" y="260" on="1"/>
      </contour>
    </TTGlyph>
    <TTGlyph name="Odieresis" xMin="65" yMin="260" xMax="165" yMax="360">
      <contour>
        <pt x="65" y="260" on="1"/>
        <pt x="65" y="360" on="1"/>
        <pt x="165" y="360" on="1"/>
        <pt x="165" y="260" on="1"/>
      </contour>
    </TTGlyph>
    <TTGlyph name="Ograve" xMin="65" yMin="260" xMax="165" yMax="360">
      <contour>
        <pt x="65" y="260" on="1"/>
        <pt x="65" y="360" on="1"/>
        <pt x="165" y="360" on="1"/>
        <pt x="165" y="260" on="1"/>
      </contour>
    </TTGlyph>
    <TTGlyph name="Omega" xMin="65" yMin="260" xMax="165" yMax="360">
      <contour>
        <pt x="65" y="260" on="1"/>
        <pt x="65" y="360" on="1"/>
        <pt x="165" y="360" on="1"/>
        <pt x="165" y="260" on="1"/>
      </contour>
    </TTGlyph>
    <TTGlyph name="Oslash" xMin="65" yMin="260" xMax="165" yMax="360">
      <contour>
        <pt x="65" y="260" on="1"/>
        <pt x="65" y="360" on="1"/>
        <pt x="165" y="360" on="1"/>
        <pt x="165" y="260" on="1"/>
      </contour>
    </TTGlyph>
    <TTGlyph name="Otilde" xMin="65" yMin="260" xMax="165" yMax="360">
      <contour>
        <pt x="65" y="260" on="1"/>
        <pt x="65" y="360" on="1"/>
        <pt x="165" y="360" on="1"/>
        <pt x="165" y="260" on="1"/>
      </contour>
    </TTGlyph>
    <TTGlyph name="P" xMin="29" yMin="157" xMax="521" yMax="582">
      <contour>
        <pt x="388" y="411" on="1"/>
        <pt x="253" y="582" on="1"/>
        <pt x="358" y="582" on="1"/>
        <pt x="521" y="370" on="1"/>
        <pt x="358" y="157" on="1"/>
        <pt x="253" y="157" on="1"/>
        <pt x="389" y="329" on="1"/>
        <pt x="29" y="329" on="1"/>
        <pt x="29" y="411" on="1"/>
      </contour>
    </TTGlyph>
    <TTGlyph name="Q" xMin="72" yMin="162" xMax="485" yMax="575">
      <contour>
        <pt x="170" y="418" on="1"/>
        <pt x="145" y="202" on="1"/>
        <pt x="72" y="275" on="1"/>
        <pt x="107" y="540" on="1"/>
        <pt x="373" y="575" on="1"/>
        <pt x="446" y="502" on="1"/>
        <pt x="229" y="478" on="1"/>
        <pt x="485" y="222" on="1"/>
        <pt x="425" y="162" on="1"/>
      </contour>
    </TTGlyph>
    <TTGlyph name="R" xMin="71" yMin="166" xMax="484" yMax="579">
      <contour>
        <pt x="327" y="481" on="1"/>
        <pt x="111" y="506" on="1"/>
        <pt x="184" y="579" on="1"/>
        <pt x="449" y="544" on="1"/>
        <pt x="484" y="278" on="1"/>
        <pt x="411" y="205" on="1"/>
        <pt x="387" y="422" on="1"/>
        <pt x="131" y="166" on="1"/>
        <pt x="71" y="226" on="1"/>
      </contour>
    </TTGlyph>
    <TTGlyph name="S" xMin="90" yMin="0" xMax="690" yMax="700">
      <contour>
        <pt x="90" y="0" on="1"/>
        <pt x="90" y="700" on="1"/>
        <pt x="690" y="700" on="1"/>
        <pt x="690" y="0" on="1"/>
      </contour>
      <contour>
        <pt x="603" y="621" on="1"/>
        <pt x="177" y="621" on="1"/>
        <pt x="177" y="79" on="1"/>
        <pt x="603" y="79" on="1"/>
      </contour>
    </TTGlyph>
    <TTGlyph name="Scaron" xMin="65" yMin="260" xMax="165" yMax="360">
      <contour>
        <pt x="65" y="260" on="1"/>
        <pt x="65" y="360" on="1"/>
        <pt x="165" y="360" on="1"/>
        <pt x="165" y="260" on="1"/>
      </contour>
    </TTGlyph>
    <TTGlyph name="T" xMin="90" yMin="-170" xMax="690" yMax="850">
      <contour>
        <pt x="90" y="-170" on="1"/>
        <pt x="90" y="850" on="1"/>
        <pt x="690" y="850" on="1"/>
        <pt x="690" y="-170" on="1"/>
      </contour>
      <contour>
        <pt x="603" y="771" on="1"/>
        <pt x="177" y="771" on="1"/>
        <pt x="177" y="-91" on="1"/>
        <pt x="603" y="-91" on="1"/>
      </contour>
    </TTGlyph>
    <TTGlyph name="Thorn" xMin="65" yMin="260" xMax="165" yMax="360">
      <contour>
        <pt x="65" y="260" on="1"/>
        <pt x="65" y="360" on="1"/>
        <pt x="165" y="360" on="1"/>
        <pt x="165" y="260" on="1"/>
      </contour>
    </TTGlyph>
    <TTGlyph name="U" xMin="25" yMin="0" xMax="456" yMax="700">
      <contour>
        <pt x="456" y="158" on="1"/>
        <pt x="456" y="72" on="0"/>
        <pt x="376" y="0" on="0"/>
        <pt x="286" y="0" on="1"/>
        <pt x="90" y="0" on="1"/>
        <pt x="90" y="325" on="1"/>
        <pt x="25" y="325" on="1"/>
        <pt x="25" y="400" on="1"/>
        <pt x="90" y="400" on="1"/>
        <pt x="90" y="700" on="1"/>
        <pt x="274" y="700" on="1"/>
        <pt x="360" y="700" on="0"/>
        <pt x="456" y="630" on="0"/>
        <pt x="456" y="544" on="1"/>
        <pt x="456" y="158" on="1"/>
      </contour>
      <contour>
        <pt x="369" y="553" on="1"/>
        <pt x="369" y="586" on="0"/>
        <pt x="328" y="625" on="0"/>
        <pt x="296" y="625" on="1"/>
        <pt x="177" y="625" on="1"/>
        <pt x="177" y="400" on="1"/>
        <pt x="295" y="400" on="1"/>
        <pt x="295" y="325" on="1"/>
        <pt x="177" y="325" on="1"/>
        <pt x="177" y="75" on="1"/>
        <pt x="295" y="75" on="1"/>
        <pt x="333" y="75" on="0"/>
        <pt x="369" y="110" on="0"/>
        <pt x="369" y="148" on="1"/>
      </contour>
    </TTGlyph>
    <TTGlyph name="Uacute" xMin="65" yMin="260" xMax="165" yMax="360">
      <contour>
        <pt x="65" y="260" on="1"/>
        <pt x="65" y="360" on="1"/>
        <pt x="165" y="360" on="1"/>
        <pt x="165" y="260" on="1"/>
      </contour>
    </TTGlyph>
    <TTGlyph name="Ucircumflex" xMin="65" yMin="260" xMax="165" yMax="360">
      <contour>
        <pt x="65" y="260" on="1"/>
        <pt x="65" y="360" on="1"/>
        <pt x="165" y="360" on="1"/>
        <pt x="165" y="260" on="1"/>
      </contour>
    </TTGlyph>
    <TTGlyph name="Udieresis" xMin="65" yMin="260" xMax="165" yMax="360">
      <contour>
        <pt x="65" y="260" on="1"/>
        <pt x="65" y="360" on="1"/>
        <pt x="165" y="360" on="1"/>
        <pt x="165" y="260" on="1"/>
      </contour>
    </TTGlyph>
    <TTGlyph name="Ugrave" xMin="65" yMin="260" xMax="165" yMax="360">
      <contour>
        <pt x="65" y="260" on="1"/>
        <pt x="65" y="360" on="1"/>
        <pt x="165" y="360" on="1"/>
        <pt x="165" y="260" on="1"/>
      </contour>
    </TTGlyph>
    <TTGlyph name="V" xMin="25" yMin="0" xMax="395" yMax="700">
      <contour>
        <pt x="85" y="0" on="1"/>
        <pt x="85" y="329" on="1"/>
        <pt x="25" y="300" on="1"/>
        <pt x="25" y="380" on="1"/>
        <pt x="85" y="409" on="1"/>
        <pt x="85" y="700" on="1"/>
        <pt x="172" y="700" on="1"/>
        <pt x="172" y="451" on="1"/>
        <pt x="295" y="510" on="1"/>
        <pt x="295" y="430" on="1"/>
        <pt x="172" y="371" on="1"/>
        <pt x="172" y="76" on="1"/>
        <pt x="395" y="76" on="1"/>
        <pt x="395" y="0" on="1"/>
      </contour>
    </TTGlyph>
    <TTGlyph name="W" xMin="85" yMin="0" xMax="436" yMax="700">
      <contour>
        <pt x="436" y="300" on="1"/>
        <pt x="436" y="217" on="0"/>
        <pt x="349" y="142" on="0"/>
        <pt x="266" y="142" on="1"/>
        <pt x="172" y="142" on="1"/>
        <pt x="172" y="0" on="1"/>
        <pt x="85" y="0" on="1"/>
        <pt x="85" y="700" on="1"/>
        <pt x="172" y="700" on="1"/>
        <pt x="172" y="570" on="1"/>
        <pt x="264" y="570" on="1"/>
        <pt x="347" y="570" on="0"/>
        <pt x="436" y="497" on="0"/>
        <pt x="436" y="414" on="1"/>
        <pt x="436" y="300" on="1"/>
      </contour>
      <contour>
        <pt x="349" y="423" on="1"/>
        <pt x="349" y="461" on="0"/>
        <pt x="314" y="495" on="0"/>
        <pt x="276" y="495" on="1"/>
        <pt x="172" y="495" on="1"/>
        <pt x="172" y="217" on="1"/>
        <pt x="276" y="217" on="1"/>
        <pt x="314" y="217" on="0"/>
        <pt x="349" y="252" on="0"/>
        <pt x="349" y="290" on="1"/>
      </contour>
    </TTGlyph>
    <TTGlyph name="X" xMin="50" yMin="0" xMax="392" yMax="845">
      <contour>
        <pt x="176" y="845" on="1"/>
        <pt x="236" y="778" on="1"/>
        <pt x="296" y="845" on="1"/>
        <pt x="392" y="845" on="1"/>
        <pt x="280" y="730" on="1"/>
        <pt x="192" y="730" on="1"/>
        <pt x="79" y="845" on="1"/>
      </contour>
      <contour>
        <pt x="379" y="170" on="1"/>
        <pt x="379" y="84" on="0"/>
        <pt x="286" y="0" on="0"/>
        <pt x="199" y="0" on="1"/>
        <pt x="67" y="0" on="1"/>
        <pt x="67" y="76" on="1"/>
        <pt x="209" y="76" on="1"/>
        <pt x="247" y="76" on="0"/>
        <pt x="292" y="121" on="0"/>
        <pt x="292" y="151" on="1"/>
        <pt x="292" y="255" on="1"/>
        <pt x="292" y="284" on="0"/>
        <pt x="262" y="322" on="0"/>
        <pt x="230" y="322" on="1"/>
        <pt x="210" y="322" on="1"/>
        <pt x="138" y="322" on="0"/>
        <pt x="50" y="406" on="0"/>
        <pt x="50" y="492" on="1"/>
        <pt x="50" y="530" on="1"/>
        <pt x="50" y="616" on="0"/>
        <pt x="143" y="700" on="0"/>
        <pt x="230" y="700" on="1"/>
        <pt x="363" y="700" on="1"/>
        <pt x="363" y="624" on="1"/>
        <pt x="220" y="624" on="1"/>
        <pt x="182" y="624" on="0"/>
        <pt x="137" y="579" on="0"/>
        <pt x="137" y="549" on="1"/>
        <pt x="137" y="473" on="1"/>
        <pt x="137" y="443" on="0"/>
        <pt x="176" y="401" on="0"/>
        <pt x="209" y="401" on="1"/>
        <pt x="229" y="401" on="1"/>
        <pt x="298" y="401" on="0"/>
        <pt x="379" y="322" on="0"/>
        <pt x="379" y="236" on="1"/>
        <pt x="379" y="170" on="1"/>
      </contour>
    </TTGlyph>
    <TTGlyph name="Y" xMin="20" yMin="0" xMax="471" yMax="841">
      <contour>
        <pt x="186" y="726" on="1"/>
        <pt x="290" y="841" on="1"/>
        <pt x="401" y="841" on="1"/>
        <pt x="269" y="726" on="1"/>
      </contour>
      <contour>
        <pt x="289" y="325" on="1"/>
        <pt x="289" y="0" on="1"/>
        <pt x="199" y="0" on="1"/>
        <pt x="199" y="325" on="1"/>
        <pt x="20" y="700" on="1"/>
        <pt x="116" y="700" on="1"/>
        <pt x="248" y="409" on="1"/>
        <pt x="380" y="700" on="1"/>
        <pt x="471" y="700" on="1"/>
      </contour>
    </TTGlyph>
    <TTGlyph name="Yacute" xMin="65" yMin="260" xMax="165" yMax="360">
      <contour>
        <pt x="65" y="260" on="1"/>
        <pt x="65" y="360" on="1"/>
        <pt x="165" y="360" on="1"/>
        <pt x="165" y="260" on="1"/>
      </contour>
    </TTGlyph>
    <TTGlyph name="Ydieresis" xMin="65" yMin="260" xMax="165" yMax="360">
      <contour>
        <pt x="65" y="260" on="1"/>
        <pt x="65" y="360" on="1"/>
        <pt x="165" y="360" on="1"/>
        <pt x="165" y="260" on="1"/>
      </contour>
    </TTGlyph>
    <TTGlyph name="Z" xMin="45" yMin="0" xMax="391" yMax="845">
      <contour>
        <pt x="169" y="845" on="1"/>
        <pt x="229" y="778" on="1"/>
        <pt x="289" y="845" on="1"/>
        <pt x="385" y="845" on="1"/>
        <pt x="273" y="730" on="1"/>
        <pt x="185" y="730" on="1"/>
        <pt x="72" y="845" on="1"/>
      </contour>
      <contour>
        <pt x="134" y="74" on="1"/>
        <pt x="381" y="74" on="1"/>
        <pt x="381" y="0" on="1"/>
        <pt x="45" y="0" on="1"/>
        <pt x="45" y="88" on="1"/>
        <pt x="303" y="626" on="1"/>
        <pt x="68" y="626" on="1"/>
        <pt x="68" y="700" on="1"/>
        <pt x="391" y="700" on="1"/>
        <pt x="391" y="612" on="1"/>
      </contour>
    </TTGlyph>
    <TTGlyph name="Zcaron" xMin="65" yMin="260" xMax="165" yMax="360">
      <contour>
        <pt x="65" y="260" on="1"/>
        <pt x="65" y="360" on="1"/>
        <pt x="165" y="360" on="1"/>
        <pt x="165" y="260" on="1"/>
      </contour>
    </TTGlyph>
    <TTGlyph name="a" xMin="70" yMin="-6" xMax="340" yMax="500">
      <contour>
        <pt x="340" y="122" on="1"/>
        <pt x="340" y="57" on="0"/>
        <pt x="271" y="-6" on="0"/>
        <pt x="214" y="-6" on="1"/>
        <pt x="196" y="-6" on="1"/>
        <pt x="139" y="-6" on="0"/>
        <pt x="70" y="57" on="0"/>
        <pt x="70" y="122" on="1"/>
        <pt x="70" y="372" on="1"/>
        <pt x="70" y="437" on="0"/>
        <pt x="139" y="500" on="0"/>
        <pt x="196" y="500" on="1"/>
        <pt x="214" y="500" on="1"/>
        <pt x="271" y="500" on="0"/>
        <pt x="340" y="437" on="0"/>
        <pt x="340" y="372" on="1"/>
        <pt x="340" y="122" on="1"/>
      </contour>
      <contour>
        <pt x="266" y="379" on="1"/>
        <pt x="266" y="402" on="0"/>
        <pt x="242" y="436" on="0"/>
        <pt x="214" y="436" on="1"/>
        <pt x="196" y="436" on="1"/>
        <pt x="168" y="436" on="0"/>
        <pt x="144" y="402" on="0"/>
        <pt x="144" y="379" on="1"/>
        <pt x="144" y="115" on="1"/>
        <pt x="144" y="92" on="0"/>
        <pt x="168" y="58" on="0"/>
        <pt x="196" y="58" on="1"/>
        <pt x="214" y="58" on="1"/>
        <pt x="242" y="58" on="0"/>
        <pt x="266" y="92" on="0"/>
        <pt x="266" y="115" on="1"/>
      </contour>
    </TTGlyph>
    <TTGlyph name="aacute" xMin="65" yMin="260" xMax="165" yMax="360">
      <contour>
        <pt x="65" y="260" on="1"/>
        <pt x="65" y="360" on="1"/>
        <pt x="165" y="360" on="1"/>
        <pt x="165" y="260" on="1"/>
      </contour>
    </TTGlyph>
    <TTGlyph name="acircumflex" xMin="65" yMin="260" xMax="165" yMax="360">
      <contour>
        <pt x="65" y="260" on="1"/>
        <pt x="65" y="360" on="1"/>
        <pt x="165" y="360" on="1"/>
        <pt x="165" y="260" on="1"/>
      </contour>
    </TTGlyph>
    <TTGlyph name="acute" xMin="65" yMin="260" xMax="165" yMax="360">
      <contour>
        <pt x="65" y="260" on="1"/>
        <pt x="65" y="360" on="1"/>
        <pt x="165" y="360" on="1"/>
        <pt x="165" y="260" on="1"/>
      </contour>
    </TTGlyph>
    <TTGlyph name="adieresis" xMin="65" yMin="260" xMax="165" yMax="360">
      <contour>
        <pt x="65" y="260" on="1"/>
        <pt x="65" y="360" on="1"/>
        <pt x="165" y="360" on="1"/>
        <pt x="165" y="260" on="1"/>
      </contour>
    </TTGlyph>
    <TTGlyph name="ae" xMin="65" yMin="260" xMax="165" yMax="360">
      <contour>
        <pt x="65" y="260" on="1"/>
        <pt x="65" y="360" on="1"/>
        <pt x="165" y="360" on="1"/>
        <pt x="165" y="260" on="1"/>
      </contour>
    </TTGlyph>
    <TTGlyph name="agrave" xMin="65" yMin="260" xMax="165" yMax="360">
      <contour>
        <pt x="65" y="260" on="1"/>
        <pt x="65" y="360" on="1"/>
        <pt x="165" y="360" on="1"/>
        <pt x="165" y="260" on="1"/>
      </contour>
    </TTGlyph>
    <TTGlyph name="ampersand" xMin="76" yMin="-200" xMax="171" yMax="-110">
      <contour>
        <pt x="171" y="-110" on="1"/>
        <pt x="171" y="-200" on="1"/>
        <pt x="76" y="-200" on="1"/>
        <pt x="76" y="-110" on="1"/>
      </contour>
    </TTGlyph>
    <TTGlyph name="approxequal" xMin="65" yMin="260" xMax="165" yMax="360">
      <contour>
        <pt x="65" y="260" on="1"/>
        <pt x="65" y="360" on="1"/>
        <pt x="165" y="360" on="1"/>
        <pt x="165" y="260" on="1"/>
      </contour>
    </TTGlyph>
    <TTGlyph name="aring" xMin="65" yMin="260" xMax="165" yMax="360">
      <contour>
        <pt x="65" y="260" on="1"/>
        <pt x="65" y="360" on="1"/>
        <pt x="165" y="360" on="1"/>
        <pt x="165" y="260" on="1"/>
      </contour>
    </TTGlyph>
    <TTGlyph name="asciicircum" xMin="30" yMin="-170" xMax="705" yMax="700">
      <contour>
        <pt x="585" y="-95" on="1"/>
        <pt x="602" y="-95" on="0"/>
        <pt x="620" y="-78" on="0"/>
        <pt x="620" y="-65" on="1"/>
        <pt x="620" y="425" on="1"/>
        <pt x="450" y="425" on="1"/>
        <pt x="450" y="0" on="1"/>
        <pt x="365" y="0" on="1"/>
        <pt x="365" y="425" on="1"/>
        <pt x="180" y="425" on="1"/>
        <pt x="180" y="0" on="1"/>
        <pt x="95" y="0" on="1"/>
        <pt x="95" y="425" on="1"/>
        <pt x="30" y="425" on="1"/>
        <pt x="30" y="500" on="1"/>
        <pt x="95" y="500" on="1"/>
        <pt x="95" y="580" on="1"/>
        <pt x="95" y="633" on="0"/>
        <pt x="154" y="690" on="0"/>
        <pt x="199" y="690" on="1"/>
        <pt x="421" y="690" on="1"/>
        <pt x="444" y="700" on="0"/>
        <pt x="469" y="700" on="1"/>
        <pt x="684" y="700" on="1"/>
        <pt x="684" y="625" on="1"/>
        <pt x="485" y="625" on="1"/>
        <pt x="468" y="625" on="0"/>
        <pt x="450" y="608" on="0"/>
        <pt x="450" y="595" on="1"/>
        <pt x="450" y="500" on="1"/>
        <pt x="705" y="500" on="1"/>
        <pt x="705" y="-60" on="1"/>
        <pt x="705" y="-113" on="0"/>
        <pt x="646" y="-170" on="0"/>
        <pt x="601" y="-170" on="1"/>
        <pt x="494" y="-170" on="1"/>
        <pt x="494" y="-95" on="1"/>
      </contour>
      <contour>
        <pt x="180" y="500" on="1"/>
        <pt x="365" y="500" on="1"/>
        <pt x="365" y="590" on="1"/>
        <pt x="365" y="597" on="0"/>
        <pt x="365" y="609" on="0"/>
        <pt x="367" y="615" on="1"/>
        <pt x="215" y="615" on="1"/>
        <pt x="198" y="615" on="0"/>
        <pt x="180" y="598" on="0"/>
        <pt x="180" y="585" on="1"/>
      </contour>
    </TTGlyph>
    <TTGlyph name="asciitilde" xMin="80" yMin="201" xMax="607" yMax="464">
      <contour>
        <pt x="359" y="201" on="1"/>
        <pt x="359" y="295" on="1"/>
        <pt x="80" y="295" on="1"/>
        <pt x="80" y="370" on="1"/>
        <pt x="359" y="370" on="1"/>
        <pt x="359" y="464" on="1"/>
        <pt x="607" y="333" on="1"/>
      </contour>
    </TTGlyph>
    <TTGlyph name="asterisk" xMin="40" yMin="598" xMax="428" yMax="745">
      <contour>
        <pt x="131" y="598" on="1"/>
        <pt x="40" y="598" on="1"/>
        <pt x="143" y="745" on="1"/>
        <pt x="258" y="745" on="1"/>
      </contour>
      <contour>
        <pt x="301" y="598" on="1"/>
        <pt x="210" y="598" on="1"/>
        <pt x="313" y="745" on="1"/>
        <pt x="428" y="745" on="1"/>
      </contour>
    </TTGlyph>
    <TTGlyph name="at" xMin="105" yMin="0" xMax="695" yMax="700">
      <contour>
        <pt x="695" y="170" on="1"/>
        <pt x="695" y="84" on="0"/>
        <pt x="602" y="0" on="0"/>
        <pt x="527" y="0" on="1"/>
        <pt x="273" y="0" on="1"/>
        <pt x="198" y="0" on="0"/>
        <pt x="105" y="84" on="0"/>
        <pt x="105" y="170" on="1"/>
        <pt x="105" y="530" on="1"/>
        <pt x="105" y="617" on="0"/>
        <pt x="198" y="700" on="0"/>
        <pt x="273" y="700" on="1"/>
        <pt x="527" y="700" on="1"/>
        <pt x="602" y="700" on="0"/>
        <pt x="695" y="617" on="0"/>
        <pt x="695" y="530" on="1"/>
        <pt x="695" y="170" on="1"/>
      </contour>
      <contour>
        <pt x="618" y="549" on="1"/>
        <pt x="618" y="564" on="0"/>
        <pt x="606" y="594" on="0"/>
        <pt x="584" y="618" on="0"/>
        <pt x="550" y="633" on="0"/>
        <pt x="527" y="633" on="1"/>
        <pt x="273" y="633" on="1"/>
        <pt x="250" y="633" on="0"/>
        <pt x="216" y="618" on="0"/>
        <pt x="193" y="594" on="0"/>
        <pt x="182" y="564" on="0"/>
        <pt x="182" y="549" on="1"/>
        <pt x="182" y="151" on="1"/>
        <pt x="182" y="136" on="0"/>
        <pt x="193" y="106" on="0"/>
        <pt x="216" y="82" on="0"/>
        <pt x="250" y="67" on="0"/>
        <pt x="273" y="67" on="1"/>
        <pt x="527" y="67" on="1"/>
        <pt x="550" y="67" on="0"/>
        <pt x="585" y="82" on="0"/>
        <pt x="607" y="106" on="0"/>
        <pt x="618" y="136" on="0"/>
        <pt x="618" y="151" on="1"/>
      </contour>
      <contour>
        <pt x="518" y="395" on="1"/>
        <pt x="518" y="350" on="0"/>
        <pt x="469" y="304" on="0"/>
        <pt x="424" y="304" on="1"/>
        <pt x="365" y="304" on="1"/>
        <pt x="365" y="159" on="1"/>
        <pt x="309" y="159" on="1"/>
        <pt x="309" y="543" on="1"/>
        <pt x="416" y="543" on="1"/>
        <pt x="466" y="543" on="0"/>
        <pt x="518" y="502" on="0"/>
        <pt x="518" y="457" on="1"/>
        <pt x="518" y="395" on="1"/>
      </contour>
      <contour>
        <pt x="459" y="457" on="1"/>
        <pt x="459" y="478" on="0"/>
        <pt x="439" y="494" on="0"/>
        <pt x="416" y="494" on="1"/>
        <pt x="365" y="494" on="1"/>
        <pt x="365" y="354" on="1"/>
        <pt x="416" y="354" on="1"/>
        <pt x="459" y="354" on="0"/>
        <pt x="459" y="394" on="1"/>
      </contour>
    </TTGlyph>
    <TTGlyph name="atilde" xMin="65" yMin="260" xMax="165" yMax="360">
      <contour>
        <pt x="65" y="260" on="1"/>
        <pt x="65" y="360" on="1"/>
        <pt x="165" y="360" on="1"/>
        <pt x="165" y="260" on="1"/>
      </contour>
    </TTGlyph>
    <TTGlyph name="b" xMin="94" yMin="0" xMax="341" yMax="495">
      <contour>
        <pt x="102" y="0" on="1"/>
        <pt x="102" y="64" on="1"/>
        <pt x="193" y="64" on="1"/>
        <pt x="193" y="428" on="1"/>
        <pt x="94" y="389" on="1"/>
        <pt x="94" y="457" on="1"/>
        <pt x="185" y="495" on="1"/>
        <pt x="267" y="495" on="1"/>
        <pt x="267" y="64" on="1"/>
        <pt x="341" y="64" on="1"/>
        <pt x="341" y="0" on="1"/>
      </contour>
    </TTGlyph>
    <TTGlyph name="backslash" xMin="30" yMin="0" xMax="705" yMax="700">
      <contour>
        <pt x="620" y="0" on="1"/>
        <pt x="620" y="425" on="1"/>
        <pt x="450" y="425" on="1"/>
        <pt x="450" y="0" on="1"/>
        <pt x="365" y="0" on="1"/>
        <pt x="365" y="425" on="1"/>
        <pt x="180" y="425" on="1"/>
        <pt x="180" y="0" on="1"/>
        <pt x="95" y="0" on="1"/>
        <pt x="95" y="425" on="1"/>
        <pt x="30" y="425" on="1"/>
        <pt x="30" y="500" on="1"/>
        <pt x="95" y="500" on="1"/>
        <pt x="95" y="580" on="1"/>
        <pt x="95" y="633" on="0"/>
        <pt x="154" y="690" on="0"/>
        <pt x="199" y="690" on="1"/>
        <pt x="421" y="690" on="1"/>
        <pt x="444" y="700" on="0"/>
        <pt x="469" y="700" on="1"/>
        <pt x="684" y="700" on="1"/>
        <pt x="684" y="625" on="1"/>
        <pt x="485" y="625" on="1"/>
        <pt x="468" y="625" on="0"/>
        <pt x="450" y="608" on="0"/>
        <pt x="450" y="595" on="1"/>
        <pt x="450" y="500" on="1"/>
        <pt x="705" y="500" on="1"/>
        <pt x="705" y="0" on="1"/>
      </contour>
      <contour>
        <pt x="180" y="500" on="1"/>
        <pt x="365" y="500" on="1"/>
        <pt x="365" y="590" on="1"/>
        <pt x="365" y="597" on="0"/>
        <pt x="365" y="609" on="0"/>
        <pt x="367" y="615" on="1"/>
        <pt x="215" y="615" on="1"/>
        <pt x="198" y="615" on="0"/>
        <pt x="180" y="598" on="0"/>
        <pt x="180" y="585" on="1"/>
      </contour>
    </TTGlyph>
    <TTGlyph name="bar" xMin="61" yMin="158" xMax="396" yMax="508">
      <contour>
        <pt x="396" y="333" on="1"/>
        <pt x="61" y="158" on="1"/>
        <pt x="61" y="508" on="1"/>
      </contour>
    </TTGlyph>
    <TTGlyph name="braceleft" xMin="60" yMin="158" xMax="395" yMax="508">
      <contour>
        <pt x="60" y="333" on="1"/>
        <pt x="395" y="508" on="1"/>
        <pt x="395" y="158" on="1"/>
      </contour>
    </TTGlyph>
    <TTGlyph name="braceright" xMin="81" yMin="202" xMax="608" yMax="465">
      <contour>
        <pt x="329" y="465" on="1"/>
        <pt x="329" y="371" on="1"/>
        <pt x="608" y="371" on="1"/>
        <pt x="608" y="296" on="1"/>
        <pt x="329" y="296" on="1"/>
        <pt x="329" y="202" on="1"/>
        <pt x="81" y="333" on="1"/>
      </contour>
    </TTGlyph>
    <TTGlyph name="bracketleft" xMin="30" yMin="0" xMax="581" yMax="700">
      <contour>
        <pt x="485" y="625" on="1"/>
        <pt x="468" y="625" on="0"/>
        <pt x="450" y="608" on="0"/>
        <pt x="450" y="595" on="1"/>
        <pt x="450" y="500" on="1"/>
        <pt x="571" y="500" on="1"/>
        <pt x="571" y="425" on="1"/>
        <pt x="450" y="425" on="1"/>
        <pt x="450" y="0" on="1"/>
        <pt x="365" y="0" on="1"/>
        <pt x="365" y="425" on="1"/>
        <pt x="180" y="425" on="1"/>
        <pt x="180" y="0" on="1"/>
        <pt x="95" y="0" on="1"/>
        <pt x="95" y="425" on="1"/>
        <pt x="30" y="425" on="1"/>
        <pt x="30" y="500" on="1"/>
        <pt x="95" y="500" on="1"/>
        <pt x="95" y="580" on="1"/>
        <pt x="95" y="633" on="0"/>
        <pt x="154" y="690" on="0"/>
        <pt x="199" y="690" on="1"/>
        <pt x="421" y="690" on="1"/>
        <pt x="444" y="700" on="0"/>
        <pt x="469" y="700" on="1"/>
        <pt x="581" y="700" on="1"/>
        <pt x="581" y="625" on="1"/>
      </contour>
      <contour>
        <pt x="365" y="590" on="1"/>
        <pt x="365" y="597" on="0"/>
        <pt x="365" y="609" on="0"/>
        <pt x="367" y="615" on="1"/>
        <pt x="215" y="615" on="1"/>
        <pt x="198" y="615" on="0"/>
        <pt x="180" y="598" on="0"/>
        <pt x="180" y="585" on="1"/>
        <pt x="180" y="500" on="1"/>
        <pt x="365" y="500" on="1"/>
        <pt x="365" y="590" on="1"/>
      </contour>
    </TTGlyph>
    <TTGlyph name="bracketright" xMin="30" yMin="0" xMax="705" yMax="700">
      <contour>
        <pt x="620" y="0" on="1"/>
        <pt x="620" y="425" on="1"/>
        <pt x="450" y="425" on="1"/>
        <pt x="450" y="0" on="1"/>
        <pt x="365" y="0" on="1"/>
        <pt x="365" y="425" on="1"/>
        <pt x="180" y="425" on="1"/>
        <pt x="180" y="0" on="1"/>
        <pt x="95" y="0" on="1"/>
        <pt x="95" y="425" on="1"/>
        <pt x="30" y="425" on="1"/>
        <pt x="30" y="500" on="1"/>
        <pt x="95" y="500" on="1"/>
        <pt x="95" y="580" on="1"/>
        <pt x="95" y="633" on="0"/>
        <pt x="154" y="690" on="0"/>
        <pt x="199" y="690" on="1"/>
        <pt x="421" y="690" on="1"/>
        <pt x="444" y="700" on="0"/>
        <pt x="469" y="700" on="1"/>
        <pt x="684" y="700" on="1"/>
        <pt x="684" y="625" on="1"/>
        <pt x="485" y="625" on="1"/>
        <pt x="468" y="625" on="0"/>
        <pt x="450" y="608" on="0"/>
        <pt x="450" y="595" on="1"/>
        <pt x="450" y="500" on="1"/>
        <pt x="705" y="500" on="1"/>
        <pt x="705" y="0" on="1"/>
      </contour>
      <contour>
        <pt x="180" y="500" on="1"/>
        <pt x="365" y="500" on="1"/>
        <pt x="365" y="590" on="1"/>
        <pt x="365" y="597" on="0"/>
        <pt x="365" y="609" on="0"/>
        <pt x="367" y="615" on="1"/>
        <pt x="215" y="615" on="1"/>
        <pt x="198" y="615" on="0"/>
        <pt x="180" y="598" on="0"/>
        <pt x="180" y="585" on="1"/>
      </contour>
    </TTGlyph>
    <TTGlyph name="breve" xMin="65" yMin="260" xMax="165" yMax="360">
      <contour>
        <pt x="65" y="260" on="1"/>
        <pt x="65" y="360" on="1"/>
        <pt x="165" y="360" on="1"/>
        <pt x="165" y="260" on="1"/>
      </contour>
    </TTGlyph>
    <TTGlyph name="brokenbar" xMin="65" yMin="260" xMax="165" yMax="360">
      <contour>
        <pt x="65" y="260" on="1"/>
        <pt x="65" y="360" on="1"/>
        <pt x="165" y="360" on="1"/>
        <pt x="165" y="260" on="1"/>
      </contour>
    </TTGlyph>
    <TTGlyph name="bullet" xMin="65" yMin="260" xMax="165" yMax="360">
      <contour>
        <pt x="65" y="260" on="1"/>
        <pt x="65" y="360" on="1"/>
        <pt x="165" y="360" on="1"/>
        <pt x="165" y="260" on="1"/>
      </contour>
    </TTGlyph>
    <TTGlyph name="c" xMin="87" yMin="0" xMax="327" yMax="495">
      <contour>
        <pt x="87" y="0" on="1"/>
        <pt x="87" y="73" on="1"/>
        <pt x="199" y="226" on="1"/>
        <pt x="215" y="247" on="0"/>
        <pt x="234" y="276" on="0"/>
        <pt x="245" y="300" on="0"/>
        <pt x="249" y="327" on="0"/>
        <pt x="249" y="346" on="1"/>
        <pt x="249" y="382" on="1"/>
        <pt x="249" y="405" on="0"/>
        <pt x="221" y="431" on="0"/>
        <pt x="188" y="431" on="1"/>
        <pt x="102" y="431" on="1"/>
        <pt x="102" y="495" on="1"/>
        <pt x="181" y="495" on="1"/>
        <pt x="256" y="495" on="0"/>
        <pt x="322" y="438" on="0"/>
        <pt x="322" y="376" on="1"/>
        <pt x="322" y="353" on="1"/>
        <pt x="322" y="322" on="0"/>
        <pt x="316" y="282" on="0"/>
        <pt x="304" y="252" on="0"/>
        <pt x="283" y="223" on="0"/>
        <pt x="268" y="203" on="1"/>
        <pt x="165" y="64" on="1"/>
        <pt x="327" y="64" on="1"/>
        <pt x="327" y="0" on="1"/>
      </contour>
    </TTGlyph>
    <TTGlyph name="caron" xMin="65" yMin="260" xMax="165" yMax="360">
      <contour>
        <pt x="65" y="260" on="1"/>
        <pt x="65" y="360" on="1"/>
        <pt x="165" y="360" on="1"/>
        <pt x="165" y="260" on="1"/>
      </contour>
    </TTGlyph>
    <TTGlyph name="ccedilla" xMin="65" yMin="260" xMax="165" yMax="360">
      <contour>
        <pt x="65" y="260" on="1"/>
        <pt x="65" y="360" on="1"/>
        <pt x="165" y="360" on="1"/>
        <pt x="165" y="260" on="1"/>
      </contour>
    </TTGlyph>
    <TTGlyph name="cedilla" xMin="65" yMin="260" xMax="165" yMax="360">
      <contour>
        <pt x="65" y="260" on="1"/>
        <pt x="65" y="360" on="1"/>
        <pt x="165" y="360" on="1"/>
        <pt x="165" y="260" on="1"/>
      </contour>
    </TTGlyph>
    <TTGlyph name="cent" xMin="65" yMin="260" xMax="165" yMax="360">
      <contour>
        <pt x="65" y="260" on="1"/>
        <pt x="65" y="360" on="1"/>
        <pt x="165" y="360" on="1"/>
        <pt x="165" y="260" on="1"/>
      </contour>
    </TTGlyph>
    <TTGlyph name="circumflex" xMin="65" yMin="260" xMax="165" yMax="360">
      <contour>
        <pt x="65" y="260" on="1"/>
        <pt x="65" y="360" on="1"/>
        <pt x="165" y="360" on="1"/>
        <pt x="165" y="260" on="1"/>
      </contour>
    </TTGlyph>
    <TTGlyph name="colon" xMin="65" yMin="260" xMax="165" yMax="360">
      <contour>
        <pt x="65" y="260" on="1"/>
        <pt x="65" y="360" on="1"/>
        <pt x="165" y="360" on="1"/>
        <pt x="165" y="260" on="1"/>
      </contour>
    </TTGlyph>
    <TTGlyph name="comma" xMin="35" yMin="579" xMax="348" yMax="714">
      <contour>
        <pt x="132" y="714" on="1"/>
        <pt x="192" y="639" on="1"/>
        <pt x="252" y="714" on="1"/>
        <pt x="348" y="714" on="1"/>
        <pt x="236" y="579" on="1"/>
        <pt x="148" y="579" on="1"/>
        <pt x="35" y="714" on="1"/>
      </contour>
    </TTGlyph>
    <TTGlyph name="copyright" xMin="65" yMin="260" xMax="165" yMax="360">
      <contour>
        <pt x="65" y="260" on="1"/>
        <pt x="65" y="360" on="1"/>
        <pt x="165" y="360" on="1"/>
        <pt x="165" y="260" on="1"/>
      </contour>
    </TTGlyph>
    <TTGlyph name="currency" xMin="29" yMin="46" xMax="541" yMax="558">
      <contour>
        <pt x="100" y="174" on="1"/>
        <pt x="88" y="206" on="0"/>
        <pt x="88" y="252" on="1"/>
        <pt x="88" y="350" on="1"/>
        <pt x="88" y="398" on="0"/>
        <pt x="100" y="429" on="1"/>
        <pt x="29" y="501" on="1"/>
        <pt x="86" y="558" on="1"/>
        <pt x="154" y="490" on="1"/>
        <pt x="191" y="510" on="0"/>
        <pt x="258" y="510" on="1"/>
        <pt x="311" y="510" on="1"/>
        <pt x="376" y="510" on="0"/>
        <pt x="415" y="489" on="1"/>
        <pt x="484" y="558" on="1"/>
        <pt x="541" y="501" on="1"/>
        <pt x="468" y="428" on="1"/>
        <pt x="481" y="398" on="0"/>
        <pt x="481" y="350" on="1"/>
        <pt x="481" y="252" on="1"/>
        <pt x="481" y="207" on="0"/>
        <pt x="469" y="175" on="1"/>
        <pt x="541" y="103" on="1"/>
        <pt x="484" y="46" on="1"/>
        <pt x="417" y="113" on="1"/>
        <pt x="377" y="92" on="0"/>
        <pt x="311" y="92" on="1"/>
        <pt x="258" y="92" on="1"/>
        <pt x="225" y="92" on="0"/>
        <pt x="173" y="102" on="0"/>
        <pt x="153" y="113" on="1"/>
        <pt x="86" y="46" on="1"/>
        <pt x="29" y="103" on="1"/>
      </contour>
      <contour>
        <pt x="396" y="370" on="1"/>
        <pt x="396" y="400" on="0"/>
        <pt x="359" y="435" on="0"/>
        <pt x="321" y="435" on="1"/>
        <pt x="248" y="435" on="1"/>
        <pt x="210" y="435" on="0"/>
        <pt x="173" y="400" on="0"/>
        <pt x="173" y="370" on="1"/>
        <pt x="173" y="232" on="1"/>
        <pt x="173" y="202" on="0"/>
        <pt x="210" y="167" on="0"/>
        <pt x="248" y="167" on="1"/>
        <pt x="321" y="167" on="1"/>
        <pt x="359" y="167" on="0"/>
        <pt x="396" y="202" on="0"/>
        <pt x="396" y="232" on="1"/>
      </contour>
    </TTGlyph>
    <TTGlyph name="d" xMin="94" yMin="0" xMax="317" yMax="495">
      <contour>
        <pt x="317" y="119" on="1"/>
        <pt x="317" y="56" on="0"/>
        <pt x="259" y="0" on="0"/>
        <pt x="190" y="0" on="1"/>
        <pt x="94" y="0" on="1"/>
        <pt x="94" y="64" on="1"/>
        <pt x="187" y="64" on="1"/>
        <pt x="213" y="64" on="0"/>
        <pt x="243" y="85" on="0"/>
        <pt x="243" y="114" on="1"/>
        <pt x="243" y="169" on="1"/>
        <pt x="243" y="194" on="0"/>
        <pt x="212" y="221" on="0"/>
        <pt x="188" y="221" on="1"/>
        <pt x="117" y="221" on="1"/>
        <pt x="117" y="285" on="1"/>
        <pt x="180" y="285" on="1"/>
        <pt x="203" y="285" on="0"/>
        <pt x="235" y="311" on="0"/>
        <pt x="235" y="337" on="1"/>
        <pt x="235" y="379" on="1"/>
        <pt x="235" y="408" on="0"/>
        <pt x="209" y="431" on="0"/>
        <pt x="180" y="431" on="1"/>
        <pt x="94" y="431" on="1"/>
        <pt x="94" y="495" on="1"/>
        <pt x="181" y="495" on="1"/>
        <pt x="244" y="495" on="0"/>
        <pt x="310" y="440" on="0"/>
        <pt x="310" y="378" on="1"/>
        <pt x="310" y="343" on="1"/>
        <pt x="310" y="314" on="0"/>
        <pt x="286" y="270" on="0"/>
        <pt x="266" y="256" on="1"/>
        <pt x="290" y="243" on="0"/>
        <pt x="317" y="198" on="0"/>
        <pt x="317" y="164" on="1"/>
        <pt x="317" y="119" on="1"/>
      </contour>
    </TTGlyph>
    <TTGlyph name="dagger" xMin="75" yMin="0" xMax="555" yMax="480">
      <contour>
        <pt x="75" y="0" on="1"/>
        <pt x="75" y="480" on="1"/>
        <pt x="315" y="480" on="1"/>
        <pt x="315" y="240" on="1"/>
        <pt x="555" y="240" on="1"/>
        <pt x="555" y="0" on="1"/>
      </contour>
      <contour>
        <pt x="435" y="360" on="1"/>
        <pt x="435" y="480" on="1"/>
        <pt x="555" y="480" on="1"/>
        <pt x="555" y="360" on="1"/>
      </contour>
    </TTGlyph>
    <TTGlyph name="daggerdbl" xMin="65" yMin="260" xMax="165" yMax="360">
      <contour>
        <pt x="65" y="260" on="1"/>
        <pt x="65" y="360" on="1"/>
        <pt x="165" y="360" on="1"/>
        <pt x="165" y="260" on="1"/>
      </contour>
    </TTGlyph>
    <TTGlyph name="degree" xMin="65" yMin="260" xMax="165" yMax="360">
      <contour>
        <pt x="65" y="260" on="1"/>
        <pt x="65" y="360" on="1"/>
        <pt x="165" y="360" on="1"/>
        <pt x="165" y="260" on="1"/>
      </contour>
    </TTGlyph>
    <TTGlyph name="dieresis" xMin="65" yMin="260" xMax="165" yMax="360">
      <contour>
        <pt x="65" y="260" on="1"/>
        <pt x="65" y="360" on="1"/>
        <pt x="165" y="360" on="1"/>
        <pt x="165" y="260" on="1"/>
      </contour>
    </TTGlyph>
    <TTGlyph name="divide" xMin="65" yMin="260" xMax="165" yMax="360">
      <contour>
        <pt x="65" y="260" on="1"/>
        <pt x="65" y="360" on="1"/>
        <pt x="165" y="360" on="1"/>
        <pt x="165" y="260" on="1"/>
      </contour>
    </TTGlyph>
    <TTGlyph name="dollar" xMin="105" yMin="-110" xMax="185" yMax="810">
      <contour>
        <pt x="105" y="-110" on="1"/>
        <pt x="105" y="250" on="1"/>
        <pt x="185" y="250" on="1"/>
        <pt x="185" y="-110" on="1"/>
      </contour>
      <contour>
        <pt x="105" y="450" on="1"/>
        <pt x="105" y="810" on="1"/>
        <pt x="185" y="810" on="1"/>
        <pt x="185" y="450" on="1"/>
      </contour>
    </TTGlyph>
    <TTGlyph name="dotaccent" xMin="65" yMin="260" xMax="165" yMax="360">
      <contour>
        <pt x="65" y="260" on="1"/>
        <pt x="65" y="360" on="1"/>
        <pt x="165" y="360" on="1"/>
        <pt x="165" y="260" on="1"/>
      </contour>
    </TTGlyph>
    <TTGlyph name="dotlessi" xMin="65" yMin="260" xMax="165" yMax="360">
      <contour>
        <pt x="65" y="260" on="1"/>
        <pt x="65" y="360" on="1"/>
        <pt x="165" y="360" on="1"/>
        <pt x="165" y="260" on="1"/>
      </contour>
    </TTGlyph>
    <TTGlyph name="dotmath" xMin="65" yMin="260" xMax="165" yMax="360">
      <contour>
        <pt x="65" y="260" on="1"/>
        <pt x="65" y="360" on="1"/>
        <pt x="165" y="360" on="1"/>
        <pt x="165" y="260" on="1"/>
      </contour>
    </TTGlyph>
    <TTGlyph name="e" xMin="73" yMin="0" xMax="344" yMax="495">
      <contour>
        <pt x="294" y="117" on="1"/>
        <pt x="294" y="0" on="1"/>
        <pt x="220" y="0" on="1"/>
        <pt x="220" y="117" on="1"/>
        <pt x="73" y="117" on="1"/>
        <pt x="73" y="191" on="1"/>
        <pt x="147" y="495" on="1"/>
        <pt x="216" y="495" on="1"/>
        <pt x="143" y="181" on="1"/>
        <pt x="220" y="181" on="1"/>
        <pt x="227" y="324" on="1"/>
        <pt x="294" y="324" on="1"/>
        <pt x="294" y="181" on="1"/>
        <pt x="344" y="181" on="1"/>
        <pt x="344" y="117" on="1"/>
      </contour>
    </TTGlyph>
    <TTGlyph name="eacute" xMin="65" yMin="260" xMax="165" yMax="360">
      <contour>
        <pt x="65" y="260" on="1"/>
        <pt x="65" y="360" on="1"/>
        <pt x="165" y="360" on="1"/>
        <pt x="165" y="260" on="1"/>
      </contour>
    </TTGlyph>
    <TTGlyph name="ecircumflex" xMin="65" yMin="260" xMax="165" yMax="360">
      <contour>
        <pt x="65" y="260" on="1"/>
        <pt x="65" y="360" on="1"/>
        <pt x="165" y="360" on="1"/>
        <pt x="165" y="260" on="1"/>
      </contour>
    </TTGlyph>
    <TTGlyph name="edieresis" xMin="65" yMin="260" xMax="165" yMax="360">
      <contour>
        <pt x="65" y="260" on="1"/>
        <pt x="65" y="360" on="1"/>
        <pt x="165" y="360" on="1"/>
        <pt x="165" y="260" on="1"/>
      </contour>
    </TTGlyph>
    <TTGlyph name="egrave" xMin="65" yMin="260" xMax="165" yMax="360">
      <contour>
        <pt x="65" y="260" on="1"/>
        <pt x="65" y="360" on="1"/>
        <pt x="165" y="360" on="1"/>
        <pt x="165" y="260" on="1"/>
      </contour>
    </TTGlyph>
    <TTGlyph name="eight" xMin="63" yMin="0" xMax="424" yMax="700">
      <contour>
        <pt x="424" y="158" on="1"/>
        <pt x="424" y="75" on="0"/>
        <pt x="345" y="0" on="0"/>
        <pt x="254" y="0" on="1"/>
        <pt x="233" y="0" on="1"/>
        <pt x="142" y="0" on="0"/>
        <pt x="63" y="75" on="0"/>
        <pt x="63" y="158" on="1"/>
        <pt x="63" y="242" on="1"/>
        <pt x="63" y="287" on="0"/>
        <pt x="96" y="348" on="0"/>
        <pt x="128" y="365" on="1"/>
        <pt x="75" y="402" on="0"/>
        <pt x="75" y="481" on="1"/>
        <pt x="75" y="544" on="1"/>
        <pt x="75" y="627" on="0"/>
        <pt x="162" y="700" on="0"/>
        <pt x="237" y="700" on="1"/>
        <pt x="250" y="700" on="1"/>
        <pt x="325" y="700" on="0"/>
        <pt x="412" y="627" on="0"/>
        <pt x="412" y="544" on="1"/>
        <pt x="412" y="481" on="1"/>
        <pt x="412" y="402" on="0"/>
        <pt x="359" y="365" on="1"/>
        <pt x="391" y="348" on="0"/>
        <pt x="424" y="287" on="0"/>
        <pt x="424" y="242" on="1"/>
        <pt x="424" y="158" on="1"/>
      </contour>
      <contour>
        <pt x="337" y="251" on="1"/>
        <pt x="337" y="284" on="0"/>
        <pt x="296" y="323" on="0"/>
        <pt x="264" y="323" on="1"/>
        <pt x="223" y="323" on="1"/>
        <pt x="191" y="323" on="0"/>
        <pt x="150" y="284" on="0"/>
        <pt x="150" y="251" on="1"/>
        <pt x="150" y="148" on="1"/>
        <pt x="150" y="111" on="0"/>
        <pt x="181" y="75" on="0"/>
        <pt x="216" y="75" on="1"/>
        <pt x="263" y="75" on="1"/>
        <pt x="301" y="75" on="0"/>
        <pt x="337" y="110" on="0"/>
        <pt x="337" y="148" on="1"/>
        <pt x="337" y="251" on="1"/>
      </contour>
      <contour>
        <pt x="225" y="625" on="1"/>
        <pt x="191" y="623" on="0"/>
        <pt x="162" y="589" on="0"/>
        <pt x="162" y="553" on="1"/>
        <pt x="162" y="471" on="1"/>
        <pt x="162" y="439" on="0"/>
        <pt x="199" y="400" on="0"/>
        <pt x="227" y="398" on="1"/>
        <pt x="254" y="398" on="1"/>
        <pt x="284" y="398" on="0"/>
        <pt x="325" y="437" on="0"/>
        <pt x="325" y="471" on="1"/>
        <pt x="325" y="553" on="1"/>
        <pt x="325" y="591" on="0"/>
        <pt x="292" y="625" on="0"/>
        <pt x="254" y="625" on="1"/>
      </contour>
    </TTGlyph>
    <TTGlyph name="ellipsis" xMin="65" yMin="260" xMax="165" yMax="360">
      <contour>
        <pt x="65" y="260" on="1"/>
        <pt x="65" y="360" on="1"/>
        <pt x="165" y="360" on="1"/>
        <pt x="165" y="260" on="1"/>
      </contour>
    </TTGlyph>
    <TTGlyph name="emdash" xMin="65" yMin="260" xMax="165" yMax="360">
      <contour>
        <pt x="65" y="260" on="1"/>
        <pt x="65" y="360" on="1"/>
        <pt x="165" y="360" on="1"/>
        <pt x="165" y="260" on="1"/>
      </contour>
    </TTGlyph>
    <TTGlyph name="endash" xMin="65" yMin="260" xMax="165" yMax="360">
      <contour>
        <pt x="65" y="260" on="1"/>
        <pt x="65" y="360" on="1"/>
        <pt x="165" y="360" on="1"/>
        <pt x="165" y="260" on="1"/>
      </contour>
    </TTGlyph>
    <TTGlyph name="equal" xMin="85" yMin="70" xMax="465" yMax="555">
      <contour>
        <pt x="354" y="375" on="1"/>
        <pt x="276" y="250" on="1"/>
        <pt x="465" y="250" on="1"/>
        <pt x="465" y="175" on="1"/>
        <pt x="230" y="175" on="1"/>
        <pt x="165" y="70" on="1"/>
        <pt x="85" y="70" on="1"/>
        <pt x="150" y="175" on="1"/>
        <pt x="85" y="175" on="1"/>
        <pt x="85" y="250" on="1"/>
        <pt x="196" y="250" on="1"/>
        <pt x="274" y="375" on="1"/>
        <pt x="85" y="375" on="1"/>
        <pt x="85" y="450" on="1"/>
        <pt x="320" y="450" on="1"/>
        <pt x="385" y="555" on="1"/>
        <pt x="465" y="555" on="1"/>
        <pt x="400" y="450" on="1"/>
        <pt x="465" y="450" on="1"/>
        <pt x="465" y="375" on="1"/>
      </contour>
    </TTGlyph>
    <TTGlyph name="eth" xMin="65" yMin="260" xMax="165" yMax="360">
      <contour>
        <pt x="65" y="260" on="1"/>
        <pt x="65" y="360" on="1"/>
        <pt x="165" y="360" on="1"/>
        <pt x="165" y="260" on="1"/>
      </contour>
    </TTGlyph>
    <TTGlyph name="exclam" xMin="85" yMin="155" xMax="465" yMax="629">
      <contour>
        <pt x="85" y="155" on="1"/>
        <pt x="85" y="230" on="1"/>
        <pt x="465" y="230" on="1"/>
        <pt x="465" y="155" on="1"/>
      </contour>
      <contour>
        <pt x="85" y="355" on="1"/>
        <pt x="85" y="430" on="1"/>
        <pt x="465" y="430" on="1"/>
        <pt x="465" y="355" on="1"/>
      </contour>
      <contour>
        <pt x="85" y="596" on="1"/>
        <pt x="120" y="617" on="0"/>
        <pt x="175" y="629" on="0"/>
        <pt x="197" y="629" on="1"/>
        <pt x="217" y="629" on="0"/>
        <pt x="259" y="617" on="0"/>
        <pt x="301" y="602" on="0"/>
        <pt x="343" y="590" on="0"/>
        <pt x="362" y="590" on="1"/>
        <pt x="388" y="590" on="0"/>
        <pt x="444" y="612" on="0"/>
        <pt x="465" y="626" on="1"/>
        <pt x="465" y="548" on="1"/>
        <pt x="442" y="533" on="0"/>
        <pt x="381" y="515" on="0"/>
        <pt x="353" y="515" on="1"/>
        <pt x="332" y="515" on="0"/>
        <pt x="291" y="527" on="0"/>
        <pt x="250" y="542" on="0"/>
        <pt x="209" y="554" on="0"/>
        <pt x="188" y="554" on="1"/>
        <pt x="162" y="554" on="0"/>
        <pt x="106" y="532" on="0"/>
        <pt x="85" y="518" on="1"/>
      </contour>
    </TTGlyph>
    <TTGlyph name="exclamdown" xMin="65" yMin="260" xMax="165" yMax="360">
      <contour>
        <pt x="65" y="260" on="1"/>
        <pt x="65" y="360" on="1"/>
        <pt x="165" y="360" on="1"/>
        <pt x="165" y="260" on="1"/>
      </contour>
    </TTGlyph>
    <TTGlyph name="f" xMin="94" yMin="0" xMax="322" yMax="495">
      <contour>
        <pt x="322" y="119" on="1"/>
        <pt x="322" y="56" on="0"/>
        <pt x="263" y="0" on="0"/>
        <pt x="195" y="0" on="1"/>
        <pt x="94" y="0" on="1"/>
        <pt x="94" y="64" on="1"/>
        <pt x="192" y="64" on="1"/>
        <pt x="248" y="64" on="0"/>
        <pt x="248" y="116" on="1"/>
        <pt x="248" y="187" on="1"/>
        <pt x="248" y="212" on="0"/>
        <pt x="217" y="240" on="0"/>
        <pt x="193" y="240" on="1"/>
        <pt x="102" y="240" on="1"/>
        <pt x="102" y="495" on="1"/>
        <pt x="312" y="495" on="1"/>
        <pt x="312" y="432" on="1"/>
        <pt x="175" y="432" on="1"/>
        <pt x="175" y="304" on="1"/>
        <pt x="199" y="304" on="1"/>
        <pt x="254" y="304" on="0"/>
        <pt x="322" y="248" on="0"/>
        <pt x="322" y="185" on="1"/>
        <pt x="322" y="119" on="1"/>
      </contour>
    </TTGlyph>
    <TTGlyph name="fi" xMin="65" yMin="260" xMax="165" yMax="360">
      <contour>
        <pt x="65" y="260" on="1"/>
        <pt x="65" y="360" on="1"/>
        <pt x="165" y="360" on="1"/>
        <pt x="165" y="260" on="1"/>
      </contour>
    </TTGlyph>
    <TTGlyph name="five" xMin="54" yMin="-170" xMax="345" yMax="515">
      <contour>
        <pt x="345" y="-12" on="1"/>
        <pt x="345" y="-95" on="0"/>
        <pt x="266" y="-170" on="0"/>
        <pt x="175" y="-170" on="1"/>
        <pt x="54" y="-170" on="1"/>
        <pt x="54" y="-95" on="1"/>
        <pt x="184" y="-95" on="1"/>
        <pt x="222" y="-95" on="0"/>
        <pt x="258" y="-60" on="0"/>
        <pt x="258" y="-22" on="1"/>
        <pt x="258" y="92" on="1"/>
        <pt x="258" y="125" on="0"/>
        <pt x="217" y="164" on="0"/>
        <pt x="185" y="164" on="1"/>
        <pt x="64" y="164" on="1"/>
        <pt x="64" y="515" on="1"/>
        <pt x="330" y="515" on="1"/>
        <pt x="330" y="440" on="1"/>
        <pt x="149" y="440" on="1"/>
        <pt x="149" y="239" on="1"/>
        <pt x="180" y="239" on="1"/>
        <pt x="253" y="239" on="0"/>
        <pt x="345" y="166" on="0"/>
        <pt x="345" y="83" on="1"/>
        <pt x="345" y="-12" on="1"/>
      </contour>
    </TTGlyph>
    <TTGlyph name="fl" xMin="65" yMin="260" xMax="165" yMax="360">
      <contour>
        <pt x="65" y="260" on="1"/>
        <pt x="65" y="360" on="1"/>
        <pt x="165" y="360" on="1"/>
        <pt x="165" y="260" on="1"/>
      </contour>
    </TTGlyph>
    <TTGlyph name="florin" xMin="65" yMin="260" xMax="165" yMax="360">
      <contour>
        <pt x="65" y="260" on="1"/>
        <pt x="65" y="360" on="1"/>
        <pt x="165" y="360" on="1"/>
        <pt x="165" y="260" on="1"/>
      </contour>
    </TTGlyph>
    <TTGlyph name="four" xMin="59" yMin="-170" xMax="412" yMax="515">
      <contour>
        <pt x="342" y="0" on="1"/>
        <pt x="342" y="-170" on="1"/>
        <pt x="259" y="-170" on="1"/>
        <pt x="259" y="0" on="1"/>
        <pt x="59" y="0" on="1"/>
        <pt x="59" y="84" on="1"/>
        <pt x="158" y="515" on="1"/>
        <pt x="239" y="515" on="1"/>
        <pt x="143" y="73" on="1"/>
        <pt x="260" y="73" on="1"/>
        <pt x="260" y="272" on="1"/>
        <pt x="342" y="272" on="1"/>
        <pt x="342" y="73" on="1"/>
        <pt x="412" y="73" on="1"/>
        <pt x="412" y="0" on="1"/>
      </contour>
    </TTGlyph>
    <TTGlyph name="fraction" xMin="65" yMin="260" xMax="165" yMax="360">
      <contour>
        <pt x="65" y="260" on="1"/>
        <pt x="65" y="360" on="1"/>
        <pt x="165" y="360" on="1"/>
        <pt x="165" y="260" on="1"/>
      </contour>
    </TTGlyph>
    <TTGlyph name="g" xMin="75" yMin="0" xMax="340" yMax="495">
      <contour>
        <pt x="340" y="128" on="1"/>
        <pt x="340" y="64" on="0"/>
        <pt x="270" y="0" on="0"/>
        <pt x="222" y="0" on="1"/>
        <pt x="193" y="0" on="1"/>
        <pt x="145" y="0" on="0"/>
        <pt x="75" y="64" on="0"/>
        <pt x="75" y="128" on="1"/>
        <pt x="75" y="362" on="1"/>
        <pt x="75" y="427" on="0"/>
        <pt x="143" y="495" on="0"/>
        <pt x="208" y="495" on="1"/>
        <pt x="305" y="495" on="1"/>
        <pt x="305" y="431" on="1"/>
        <pt x="206" y="431" on="1"/>
        <pt x="177" y="431" on="0"/>
        <pt x="148" y="402" on="0"/>
        <pt x="148" y="379" on="1"/>
        <pt x="148" y="315" on="1"/>
        <pt x="212" y="315" on="1"/>
        <pt x="275" y="315" on="0"/>
        <pt x="340" y="257" on="0"/>
        <pt x="340" y="192" on="1"/>
        <pt x="340" y="128" on="1"/>
      </contour>
      <contour>
        <pt x="148" y="251" on="1"/>
        <pt x="148" y="121" on="1"/>
        <pt x="148" y="98" on="0"/>
        <pt x="168" y="64" on="0"/>
        <pt x="197" y="64" on="1"/>
        <pt x="218" y="64" on="1"/>
        <pt x="247" y="64" on="0"/>
        <pt x="267" y="98" on="0"/>
        <pt x="267" y="121" on="1"/>
        <pt x="267" y="199" on="1"/>
        <pt x="267" y="222" on="0"/>
        <pt x="241" y="251" on="0"/>
        <pt x="212" y="251" on="1"/>
      </contour>
    </TTGlyph>
    <TTGlyph name="germandbls" xMin="65" yMin="260" xMax="165" yMax="360">
      <contour>
        <pt x="65" y="260" on="1"/>
        <pt x="65" y="360" on="1"/>
        <pt x="165" y="360" on="1"/>
        <pt x="165" y="260" on="1"/>
      </contour>
    </TTGlyph>
    <TTGlyph name="grave" xMin="70" yMin="235" xMax="220" yMax="390">
      <contour>
        <pt x="70" y="235" on="1"/>
        <pt x="70" y="390" on="1"/>
        <pt x="220" y="390" on="1"/>
        <pt x="220" y="235" on="1"/>
      </contour>
    </TTGlyph>
    <TTGlyph name="greater" xMin="85" yMin="0" xMax="465" yMax="564">
      <contour>
        <pt x="85" y="125" on="1"/>
        <pt x="85" y="219" on="1"/>
        <pt x="393" y="336" on="1"/>
        <pt x="85" y="472" on="1"/>
        <pt x="85" y="564" on="1"/>
        <pt x="465" y="385" on="1"/>
        <pt x="465" y="280" on="1"/>
      </contour>
      <contour>
        <pt x="85" y="0" on="1"/>
        <pt x="85" y="75" on="1"/>
        <pt x="465" y="75" on="1"/>
        <pt x="465" y="0" on="1"/>
      </contour>
    </TTGlyph>
    <TTGlyph name="greaterequal" xMin="65" yMin="260" xMax="165" yMax="360">
      <contour>
        <pt x="65" y="260" on="1"/>
        <pt x="65" y="360" on="1"/>
        <pt x="165" y="360" on="1"/>
        <pt x="165" y="260" on="1"/>
      </contour>
    </TTGlyph>
    <TTGlyph name="guillemotleft" xMin="65" yMin="260" xMax="165" yMax="360">
      <contour>
        <pt x="65" y="260" on="1"/>
        <pt x="65" y="360" on="1"/>
        <pt x="165" y="360" on="1"/>
        <pt x="165" y="260" on="1"/>
      </contour>
    </TTGlyph>
    <TTGlyph name="guillemotright" xMin="65" yMin="260" xMax="165" yMax="360">
      <contour>
        <pt x="65" y="260" on="1"/>
        <pt x="65" y="360" on="1"/>
        <pt x="165" y="360" on="1"/>
        <pt x="165" y="260" on="1"/>
      </contour>
    </TTGlyph>
    <TTGlyph name="guilsinglleft" xMin="65" yMin="260" xMax="165" yMax="360">
      <contour>
        <pt x="65" y="260" on="1"/>
        <pt x="65" y="360" on="1"/>
        <pt x="165" y="360" on="1"/>
        <pt x="165" y="260" on="1"/>
      </contour>
    </TTGlyph>
    <TTGlyph name="guilsinglright" xMin="65" yMin="260" xMax="165" yMax="360">
      <contour>
        <pt x="65" y="260" on="1"/>
        <pt x="65" y="360" on="1"/>
        <pt x="165" y="360" on="1"/>
        <pt x="165" y="260" on="1"/>
      </contour>
    </TTGlyph>
    <TTGlyph name="h" xMin="100" yMin="0" xMax="329" yMax="495">
      <contour>
        <pt x="211" y="0" on="1"/>
        <pt x="137" y="0" on="1"/>
        <pt x="259" y="430" on="1"/>
        <pt x="100" y="430" on="1"/>
        <pt x="100" y="495" on="1"/>
        <pt x="329" y="495" on="1"/>
        <pt x="329" y="414" on="1"/>
      </contour>
    </TTGlyph>
    <TTGlyph name="hungarumlaut" xMin="65" yMin="260" xMax="165" yMax="360">
      <contour>
        <pt x="65" y="260" on="1"/>
        <pt x="65" y="360" on="1"/>
        <pt x="165" y="360" on="1"/>
        <pt x="165" y="260" on="1"/>
      </contour>
    </TTGlyph>
    <TTGlyph name="hyphen" xMin="85" yMin="275" xMax="410" yMax="350">
      <contour>
        <pt x="85" y="275" on="1"/>
        <pt x="85" y="350" on="1"/>
        <pt x="410" y="350" on="1"/>
        <pt x="410" y="275" on="1"/>
      </contour>
    </TTGlyph>
    <TTGlyph name="i" xMin="66" yMin="0" xMax="344" yMax="495">
      <contour>
        <pt x="344" y="119" on="1"/>
        <pt x="344" y="56" on="0"/>
        <pt x="275" y="0" on="0"/>
        <pt x="207" y="0" on="1"/>
        <pt x="203" y="0" on="1"/>
        <pt x="135" y="0" on="0"/>
        <pt x="66" y="56" on="0"/>
        <pt x="66" y="119" on="1"/>
        <pt x="66" y="166" on="1"/>
        <pt x="66" y="232" on="0"/>
        <pt x="114" y="258" on="1"/>
        <pt x="75" y="286" on="0"/>
        <pt x="75" y="345" on="1"/>
        <pt x="75" y="378" on="1"/>
        <pt x="75" y="440" on="0"/>
        <pt x="146" y="495" on="0"/>
        <pt x="203" y="495" on="1"/>
        <pt x="207" y="495" on="1"/>
        <pt x="234" y="495" on="0"/>
        <pt x="281" y="482" on="0"/>
        <pt x="316" y="453" on="0"/>
        <pt x="335" y="409" on="0"/>
        <pt x="335" y="378" on="1"/>
        <pt x="335" y="345" on="1"/>
        <pt x="335" y="286" on="0"/>
        <pt x="296" y="258" on="1"/>
        <pt x="344" y="232" on="0"/>
        <pt x="344" y="166" on="1"/>
        <pt x="344" y="119" on="1"/>
      </contour>
      <contour>
        <pt x="271" y="171" on="1"/>
        <pt x="271" y="196" on="0"/>
        <pt x="244" y="224" on="0"/>
        <pt x="219" y="224" on="1"/>
        <pt x="192" y="224" on="1"/>
        <pt x="167" y="224" on="0"/>
        <pt x="139" y="196" on="0"/>
        <pt x="139" y="171" on="1"/>
        <pt x="139" y="117" on="1"/>
        <pt x="139" y="63" on="0"/>
        <pt x="188" y="63" on="1"/>
        <pt x="216" y="63" on="1"/>
        <pt x="245" y="63" on="0"/>
        <pt x="271" y="88" on="0"/>
        <pt x="271" y="117" on="1"/>
        <pt x="271" y="171" on="1"/>
      </contour>
      <contour>
        <pt x="191" y="432" on="1"/>
        <pt x="165" y="432" on="0"/>
        <pt x="147" y="404" on="0"/>
        <pt x="147" y="378" on="1"/>
        <pt x="147" y="336" on="1"/>
        <pt x="147" y="312" on="0"/>
        <pt x="172" y="289" on="0"/>
        <pt x="193" y="287" on="1"/>
        <pt x="212" y="287" on="1"/>
        <pt x="235" y="287" on="0"/>
        <pt x="263" y="310" on="0"/>
        <pt x="263" y="336" on="1"/>
        <pt x="263" y="378" on="1"/>
        <pt x="263" y="407" on="0"/>
        <pt x="241" y="432" on="0"/>
        <pt x="213" y="432" on="1"/>
      </contour>
    </TTGlyph>
    <TTGlyph name="iacute" xMin="65" yMin="260" xMax="165" yMax="360">
      <contour>
        <pt x="65" y="260" on="1"/>
        <pt x="65" y="360" on="1"/>
        <pt x="165" y="360" on="1"/>
        <pt x="165" y="260" on="1"/>
      </contour>
    </TTGlyph>
    <TTGlyph name="icircumflex" xMin="65" yMin="260" xMax="165" yMax="360">
      <contour>
        <pt x="65" y="260" on="1"/>
        <pt x="65" y="360" on="1"/>
        <pt x="165" y="360" on="1"/>
        <pt x="165" y="260" on="1"/>
      </contour>
    </TTGlyph>
    <TTGlyph name="idieresis" xMin="65" yMin="260" xMax="165" yMax="360">
      <contour>
        <pt x="65" y="260" on="1"/>
        <pt x="65" y="360" on="1"/>
        <pt x="165" y="360" on="1"/>
        <pt x="165" y="260" on="1"/>
      </contour>
    </TTGlyph>
    <TTGlyph name="igrave" xMin="65" yMin="260" xMax="165" yMax="360">
      <contour>
        <pt x="65" y="260" on="1"/>
        <pt x="65" y="360" on="1"/>
        <pt x="165" y="360" on="1"/>
        <pt x="165" y="260" on="1"/>
      </contour>
    </TTGlyph>
    <TTGlyph name="infinity" xMin="65" yMin="260" xMax="165" yMax="360">
      <contour>
        <pt x="65" y="260" on="1"/>
        <pt x="65" y="360" on="1"/>
        <pt x="165" y="360" on="1"/>
        <pt x="165" y="260" on="1"/>
      </contour>
    </TTGlyph>
    <TTGlyph name="integral" xMin="65" yMin="260" xMax="165" yMax="360">
      <contour>
        <pt x="65" y="260" on="1"/>
        <pt x="65" y="360" on="1"/>
        <pt x="165" y="360" on="1"/>
        <pt x="165" y="260" on="1"/>
      </contour>
    </TTGlyph>
    <TTGlyph name="j" xMin="70" yMin="1" xMax="335" yMax="496">
      <contour>
        <pt x="70" y="368" on="1"/>
        <pt x="70" y="400" on="0"/>
        <pt x="89" y="448" on="0"/>
        <pt x="121" y="480" on="0"/>
        <pt x="164" y="496" on="0"/>
        <pt x="188" y="496" on="1"/>
        <pt x="217" y="496" on="1"/>
        <pt x="241" y="496" on="0"/>
        <pt x="284" y="480" on="0"/>
        <pt x="316" y="448" on="0"/>
        <pt x="335" y="400" on="0"/>
        <pt x="335" y="368" on="1"/>
        <pt x="335" y="134" on="1"/>
        <pt x="335" y="69" on="0"/>
        <pt x="268" y="1" on="0"/>
        <pt x="203" y="1" on="1"/>
        <pt x="105" y="1" on="1"/>
        <pt x="105" y="65" on="1"/>
        <pt x="205" y="65" on="1"/>
        <pt x="234" y="65" on="0"/>
        <pt x="263" y="94" on="0"/>
        <pt x="263" y="117" on="1"/>
        <pt x="263" y="184" on="1"/>
        <pt x="198" y="184" on="1"/>
        <pt x="135" y="184" on="0"/>
        <pt x="70" y="242" on="0"/>
        <pt x="70" y="307" on="1"/>
        <pt x="70" y="368" on="1"/>
      </contour>
      <contour>
        <pt x="263" y="248" on="1"/>
        <pt x="263" y="375" on="1"/>
        <pt x="263" y="398" on="0"/>
        <pt x="242" y="432" on="0"/>
        <pt x="213" y="432" on="1"/>
        <pt x="192" y="432" on="1"/>
        <pt x="163" y="432" on="0"/>
        <pt x="143" y="398" on="0"/>
        <pt x="143" y="375" on="1"/>
        <pt x="143" y="300" on="1"/>
        <pt x="143" y="277" on="0"/>
        <pt x="169" y="248" on="0"/>
        <pt x="198" y="248" on="1"/>
      </contour>
    </TTGlyph>
    <TTGlyph name="k" xMin="85" yMin="275" xMax="465" yMax="350">
      <contour>
        <pt x="85" y="275" on="1"/>
        <pt x="85" y="350" on="1"/>
        <pt x="465" y="350" on="1"/>
        <pt x="465" y="275" on="1"/>
      </contour>
    </TTGlyph>
    <TTGlyph name="l" xMin="45" yMin="0" xMax="509" yMax="500">
      <contour>
        <pt x="124" y="0" on="1"/>
        <pt x="124" y="427" on="1"/>
        <pt x="45" y="427" on="1"/>
        <pt x="45" y="500" on="1"/>
        <pt x="509" y="500" on="1"/>
        <pt x="509" y="427" on="1"/>
        <pt x="419" y="427" on="1"/>
        <pt x="419" y="105" on="1"/>
        <pt x="419" y="89" on="0"/>
        <pt x="434" y="75" on="0"/>
        <pt x="454" y="75" on="1"/>
        <pt x="469" y="75" on="1"/>
        <pt x="469" y="0" on="1"/>
        <pt x="419" y="0" on="1"/>
        <pt x="404" y="0" on="0"/>
        <pt x="374" y="10" on="0"/>
        <pt x="350" y="33" on="0"/>
        <pt x="334" y="72" on="0"/>
        <pt x="334" y="100" on="1"/>
        <pt x="334" y="427" on="1"/>
        <pt x="209" y="427" on="1"/>
        <pt x="209" y="0" on="1"/>
      </contour>
    </TTGlyph>
    <TTGlyph name="less" xMin="85" yMin="0" xMax="465" yMax="564">
      <contour>
        <pt x="85" y="280" on="1"/>
        <pt x="85" y="385" on="1"/>
        <pt x="465" y="564" on="1"/>
        <pt x="465" y="472" on="1"/>
        <pt x="157" y="336" on="1"/>
        <pt x="465" y="219" on="1"/>
        <pt x="465" y="125" on="1"/>
      </contour>
      <contour>
        <pt x="85" y="0" on="1"/>
        <pt x="85" y="75" on="1"/>
        <pt x="465" y="75" on="1"/>
        <pt x="465" y="0" on="1"/>
      </contour>
    </TTGlyph>
    <TTGlyph name="lessequal" xMin="65" yMin="260" xMax="165" yMax="360">
      <contour>
        <pt x="65" y="260" on="1"/>
        <pt x="65" y="360" on="1"/>
        <pt x="165" y="360" on="1"/>
        <pt x="165" y="260" on="1"/>
      </contour>
    </TTGlyph>
    <TTGlyph name="logicaland" xMin="65" yMin="260" xMax="165" yMax="360">
      <contour>
        <pt x="65" y="260" on="1"/>
        <pt x="65" y="360" on="1"/>
        <pt x="165" y="360" on="1"/>
        <pt x="165" y="260" on="1"/>
      </contour>
    </TTGlyph>
    <TTGlyph name="logicalnot" xMin="65" yMin="260" xMax="165" yMax="360">
      <contour>
        <pt x="65" y="260" on="1"/>
        <pt x="65" y="360" on="1"/>
        <pt x="165" y="360" on="1"/>
        <pt x="165" y="260" on="1"/>
      </contour>
    </TTGlyph>
    <TTGlyph name="lozenge" xMin="65" yMin="260" xMax="165" yMax="360">
      <contour>
        <pt x="65" y="260" on="1"/>
        <pt x="65" y="360" on="1"/>
        <pt x="165" y="360" on="1"/>
        <pt x="165" y="260" on="1"/>
      </contour>
    </TTGlyph>
    <TTGlyph name="lslash" xMin="65" yMin="260" xMax="165" yMax="360">
      <contour>
        <pt x="65" y="260" on="1"/>
        <pt x="65" y="360" on="1"/>
        <pt x="165" y="360" on="1"/>
        <pt x="165" y="260" on="1"/>
      </contour>
    </TTGlyph>
    <TTGlyph name="m" xMin="65" yMin="0" xMax="406" yMax="700">
      <contour>
        <pt x="65" y="280" on="1"/>
        <pt x="65" y="366" on="0"/>
        <pt x="148" y="440" on="0"/>
        <pt x="233" y="440" on="1"/>
        <pt x="321" y="440" on="1"/>
        <pt x="321" y="549" on="1"/>
        <pt x="321" y="579" on="0"/>
        <pt x="276" y="624" on="0"/>
        <pt x="238" y="624" on="1"/>
        <pt x="113" y="624" on="1"/>
        <pt x="113" y="700" on="1"/>
        <pt x="228" y="700" on="1"/>
        <pt x="315" y="700" on="0"/>
        <pt x="406" y="616" on="0"/>
        <pt x="406" y="530" on="1"/>
        <pt x="406" y="170" on="1"/>
        <pt x="406" y="127" on="0"/>
        <pt x="381" y="63" on="0"/>
        <pt x="337" y="21" on="0"/>
        <pt x="280" y="0" on="0"/>
        <pt x="248" y="0" on="1"/>
        <pt x="223" y="0" on="1"/>
        <pt x="191" y="0" on="0"/>
        <pt x="134" y="21" on="0"/>
        <pt x="90" y="63" on="0"/>
        <pt x="65" y="127" on="0"/>
        <pt x="65" y="170" on="1"/>
      </contour>
      <contour>
        <pt x="223" y="365" on="1"/>
        <pt x="185" y="365" on="0"/>
        <pt x="150" y="329" on="0"/>
        <pt x="150" y="299" on="1"/>
        <pt x="150" y="151" on="1"/>
        <pt x="150" y="121" on="0"/>
        <pt x="190" y="75" on="0"/>
        <pt x="228" y="75" on="1"/>
        <pt x="243" y="75" on="1"/>
        <pt x="281" y="75" on="0"/>
        <pt x="321" y="121" on="0"/>
        <pt x="321" y="151" on="1"/>
        <pt x="321" y="365" on="1"/>
      </contour>
    </TTGlyph>
    <TTGlyph name="macron" xMin="65" yMin="260" xMax="165" yMax="360">
      <contour>
        <pt x="65" y="260" on="1"/>
        <pt x="65" y="360" on="1"/>
        <pt x="165" y="360" on="1"/>
        <pt x="165" y="260" on="1"/>
      </contour>
    </TTGlyph>
    <TTGlyph name="minus" xMin="65" yMin="260" xMax="165" yMax="360">
      <contour>
        <pt x="65" y="260" on="1"/>
        <pt x="65" y="360" on="1"/>
        <pt x="165" y="360" on="1"/>
        <pt x="165" y="260" on="1"/>
      </contour>
    </TTGlyph>
    <TTGlyph name="mu" xMin="65" yMin="260" xMax="165" yMax="360">
      <contour>
        <pt x="65" y="260" on="1"/>
        <pt x="65" y="360" on="1"/>
        <pt x="165" y="360" on="1"/>
        <pt x="165" y="260" on="1"/>
      </contour>
    </TTGlyph>
    <TTGlyph name="multiply" xMin="65" yMin="260" xMax="165" yMax="360">
      <contour>
        <pt x="65" y="260" on="1"/>
        <pt x="65" y="360" on="1"/>
        <pt x="165" y="360" on="1"/>
        <pt x="165" y="260" on="1"/>
      </contour>
    </TTGlyph>
    <TTGlyph name="n" xMin="-10" yMin="-235" xMax="332" yMax="820">
      <contour>
        <pt x="81" y="-160" on="1"/>
        <pt x="98" y="-160" on="0"/>
        <pt x="116" y="-143" on="0"/>
        <pt x="116" y="-130" on="1"/>
        <pt x="116" y="710" on="1"/>
        <pt x="116" y="763" on="0"/>
        <pt x="175" y="820" on="0"/>
        <pt x="220" y="820" on="1"/>
        <pt x="332" y="820" on="1"/>
        <pt x="332" y="745" on="1"/>
        <pt x="236" y="745" on="1"/>
        <pt x="219" y="745" on="0"/>
        <pt x="201" y="728" on="0"/>
        <pt x="201" y="715" on="1"/>
        <pt x="201" y="-125" on="1"/>
        <pt x="201" y="-178" on="0"/>
        <pt x="142" y="-235" on="0"/>
        <pt x="97" y="-235" on="1"/>
        <pt x="-10" y="-235" on="1"/>
        <pt x="-10" y="-160" on="1"/>
      </contour>
    </TTGlyph>
    <TTGlyph name="nine" xMin="50" yMin="-170" xMax="391" yMax="515">
      <contour>
        <pt x="50" y="345" on="1"/>
        <pt x="50" y="388" on="0"/>
        <pt x="75" y="452" on="0"/>
        <pt x="119" y="494" on="0"/>
        <pt x="176" y="515" on="0"/>
        <pt x="208" y="515" on="1"/>
        <pt x="233" y="515" on="1"/>
        <pt x="265" y="515" on="0"/>
        <pt x="322" y="494" on="0"/>
        <pt x="366" y="452" on="0"/>
        <pt x="391" y="388" on="0"/>
        <pt x="391" y="345" on="1"/>
        <pt x="391" y="0" on="1"/>
        <pt x="391" y="-86" on="0"/>
        <pt x="300" y="-170" on="0"/>
        <pt x="213" y="-170" on="1"/>
        <pt x="108" y="-170" on="1"/>
        <pt x="108" y="-94" on="1"/>
        <pt x="223" y="-94" on="1"/>
        <pt x="261" y="-94" on="0"/>
        <pt x="306" y="-49" on="0"/>
        <pt x="306" y="-19" on="1"/>
        <pt x="306" y="87" on="1"/>
        <pt x="218" y="87" on="1"/>
        <pt x="133" y="87" on="0"/>
        <pt x="50" y="161" on="0"/>
        <pt x="50" y="247" on="1"/>
        <pt x="50" y="345" on="1"/>
      </contour>
      <contour>
        <pt x="306" y="162" on="1"/>
        <pt x="306" y="364" on="1"/>
        <pt x="306" y="394" on="0"/>
        <pt x="266" y="440" on="0"/>
        <pt x="228" y="440" on="1"/>
        <pt x="213" y="440" on="1"/>
        <pt x="175" y="440" on="0"/>
        <pt x="135" y="394" on="0"/>
        <pt x="135" y="364" on="1"/>
        <pt x="135" y="228" on="1"/>
        <pt x="135" y="198" on="0"/>
        <pt x="170" y="162" on="0"/>
        <pt x="208" y="162" on="1"/>
      </contour>
    </TTGlyph>
    <TTGlyph name="notequal" xMin="65" yMin="260" xMax="165" yMax="360">
      <contour>
        <pt x="65" y="260" on="1"/>
        <pt x="65" y="360" on="1"/>
        <pt x="165" y="360" on="1"/>
        <pt x="165" y="260" on="1"/>
      </contour>
    </TTGlyph>
    <TTGlyph name="ntilde" xMin="65" yMin="260" xMax="165" yMax="360">
      <contour>
        <pt x="65" y="260" on="1"/>
        <pt x="65" y="360" on="1"/>
        <pt x="165" y="360" on="1"/>
        <pt x="165" y="260" on="1"/>
      </contour>
    </TTGlyph>
    <TTGlyph name="numbersign" xMin="25" yMin="0" xMax="485" yMax="700">
      <contour>
        <pt x="25" y="0" on="1"/>
        <pt x="203" y="700" on="1"/>
        <pt x="314" y="700" on="1"/>
        <pt x="485" y="0" on="1"/>
      </contour>
      <contour>
        <pt x="258" y="625" on="1"/>
        <pt x="133" y="75" on="1"/>
        <pt x="377" y="75" on="1"/>
      </contour>
    </TTGlyph>
    <TTGlyph name="o" xMin="58" yMin="128" xMax="483" yMax="620">
      <contour>
        <pt x="314" y="258" on="1"/>
        <pt x="483" y="393" on="1"/>
        <pt x="483" y="291" on="1"/>
        <pt x="271" y="128" on="1"/>
        <pt x="58" y="291" on="1"/>
        <pt x="58" y="393" on="1"/>
        <pt x="228" y="257" on="1"/>
        <pt x="228" y="620" on="1"/>
        <pt x="314" y="620" on="1"/>
      </contour>
    </TTGlyph>
    <TTGlyph name="oacute" xMin="65" yMin="260" xMax="165" yMax="360">
      <contour>
        <pt x="65" y="260" on="1"/>
        <pt x="65" y="360" on="1"/>
        <pt x="165" y="360" on="1"/>
        <pt x="165" y="260" on="1"/>
      </contour>
    </TTGlyph>
    <TTGlyph name="ocircumflex" xMin="65" yMin="260" xMax="165" yMax="360">
      <contour>
        <pt x="65" y="260" on="1"/>
        <pt x="65" y="360" on="1"/>
        <pt x="165" y="360" on="1"/>
        <pt x="165" y="260" on="1"/>
      </contour>
    </TTGlyph>
    <TTGlyph name="odieresis" xMin="65" yMin="260" xMax="165" yMax="360">
      <contour>
        <pt x="65" y="260" on="1"/>
        <pt x="65" y="360" on="1"/>
        <pt x="165" y="360" on="1"/>
        <pt x="165" y="260" on="1"/>
      </contour>
    </TTGlyph>
    <TTGlyph name="oe" xMin="65" yMin="260" xMax="165" yMax="360">
      <contour>
        <pt x="65" y="260" on="1"/>
        <pt x="65" y="360" on="1"/>
        <pt x="165" y="360" on="1"/>
        <pt x="165" y="260" on="1"/>
      </contour>
    </TTGlyph>
    <TTGlyph name="ogonek" xMin="65" yMin="260" xMax="165" yMax="360">
      <contour>
        <pt x="65" y="260" on="1"/>
        <pt x="65" y="360" on="1"/>
        <pt x="165" y="360" on="1"/>
        <pt x="165" y="260" on="1"/>
      </contour>
    </TTGlyph>
    <TTGlyph name="ograve" xMin="65" yMin="260" xMax="165" yMax="360">
      <contour>
        <pt x="65" y="260" on="1"/>
        <pt x="65" y="360" on="1"/>
        <pt x="165" y="360" on="1"/>
        <pt x="165" y="260" on="1"/>
      </contour>
    </TTGlyph>
    <TTGlyph name="one" xMin="52" yMin="0" xMax="367" yMax="515">
      <contour>
        <pt x="62" y="0" on="1"/>
        <pt x="62" y="75" on="1"/>
        <pt x="183" y="75" on="1"/>
        <pt x="183" y="437" on="1"/>
        <pt x="52" y="385" on="1"/>
        <pt x="52" y="465" on="1"/>
        <pt x="173" y="515" on="1"/>
        <pt x="268" y="515" on="1"/>
        <pt x="268" y="75" on="1"/>
        <pt x="367" y="75" on="1"/>
        <pt x="367" y="0" on="1"/>
      </contour>
    </TTGlyph>
    <TTGlyph name="onehalf" xMin="65" yMin="260" xMax="165" yMax="360">
      <contour>
        <pt x="65" y="260" on="1"/>
        <pt x="65" y="360" on="1"/>
        <pt x="165" y="360" on="1"/>
        <pt x="165" y="260" on="1"/>
      </contour>
    </TTGlyph>
    <TTGlyph name="onequarter" xMin="65" yMin="260" xMax="165" yMax="360">
      <contour>
        <pt x="65" y="260" on="1"/>
        <pt x="65" y="360" on="1"/>
        <pt x="165" y="360" on="1"/>
        <pt x="165" y="260" on="1"/>
      </contour>
    </TTGlyph>
    <TTGlyph name="onesuperior" xMin="65" yMin="260" xMax="165" yMax="360">
      <contour>
        <pt x="65" y="260" on="1"/>
        <pt x="65" y="360" on="1"/>
        <pt x="165" y="360" on="1"/>
        <pt x="165" y="260" on="1"/>
      </contour>
    </TTGlyph>
    <TTGlyph name="ordfeminine" xMin="65" yMin="260" xMax="165" yMax="360">
      <contour>
        <pt x="65" y="260" on="1"/>
        <pt x="65" y="360" on="1"/>
        <pt x="165" y="360" on="1"/>
        <pt x="165" y="260" on="1"/>
      </contour>
    </TTGlyph>
    <TTGlyph name="ordmasculine" xMin="65" yMin="260" xMax="165" yMax="360">
      <contour>
        <pt x="65" y="260" on="1"/>
        <pt x="65" y="360" on="1"/>
        <pt x="165" y="360" on="1"/>
        <pt x="165" y="260" on="1"/>
      </contour>
    </TTGlyph>
    <TTGlyph name="oslash" xMin="65" yMin="260" xMax="165" yMax="360">
      <contour>
        <pt x="65" y="260" on="1"/>
        <pt x="65" y="360" on="1"/>
        <pt x="165" y="360" on="1"/>
        <pt x="165" y="260" on="1"/>
      </contour>
    </TTGlyph>
    <TTGlyph name="otilde" xMin="65" yMin="260" xMax="165" yMax="360">
      <contour>
        <pt x="65" y="260" on="1"/>
        <pt x="65" y="360" on="1"/>
        <pt x="165" y="360" on="1"/>
        <pt x="165" y="260" on="1"/>
      </contour>
    </TTGlyph>
    <TTGlyph name="p" xMin="29" yMin="158" xMax="521" yMax="583">
      <contour>
        <pt x="162" y="329" on="1"/>
        <pt x="297" y="158" on="1"/>
        <pt x="192" y="158" on="1"/>
        <pt x="29" y="370" on="1"/>
        <pt x="192" y="583" on="1"/>
        <pt x="297" y="583" on="1"/>
        <pt x="161" y="411" on="1"/>
        <pt x="521" y="411" on="1"/>
        <pt x="521" y="329" on="1"/>
      </contour>
    </TTGlyph>
    <TTGlyph name="paragraph" xMin="51" yMin="0" xMax="442" yMax="700">
      <contour>
        <pt x="224" y="0" on="1"/>
        <pt x="224" y="374" on="1"/>
        <pt x="218" y="374" on="1"/>
        <pt x="132" y="374" on="0"/>
        <pt x="51" y="441" on="0"/>
        <pt x="51" y="527" on="1"/>
        <pt x="51" y="540" on="1"/>
        <pt x="51" y="626" on="0"/>
        <pt x="131" y="700" on="0"/>
        <pt x="218" y="700" on="1"/>
        <pt x="307" y="700" on="1"/>
        <pt x="307" y="630" on="1"/>
        <pt x="207" y="630" on="1"/>
        <pt x="169" y="630" on="0"/>
        <pt x="132" y="590" on="0"/>
        <pt x="132" y="560" on="1"/>
        <pt x="132" y="507" on="1"/>
        <pt x="132" y="477" on="0"/>
        <pt x="169" y="442" on="0"/>
        <pt x="207" y="442" on="1"/>
        <pt x="307" y="442" on="1"/>
        <pt x="307" y="0" on="1"/>
      </contour>
      <contour>
        <pt x="362" y="0" on="1"/>
        <pt x="362" y="700" on="1"/>
        <pt x="442" y="700" on="1"/>
        <pt x="442" y="0" on="1"/>
      </contour>
    </TTGlyph>
    <TTGlyph name="parenleft" xMin="75" yMin="610" xMax="170" yMax="700">
      <contour>
        <pt x="75" y="610" on="1"/>
        <pt x="75" y="700" on="1"/>
        <pt x="170" y="700" on="1"/>
        <pt x="170" y="610" on="1"/>
      </contour>
    </TTGlyph>
    <TTGlyph name="parenright" xMin="38" yMin="548" xMax="222" yMax="747">
      <contour>
        <pt x="222" y="633" on="1"/>
        <pt x="222" y="590" on="0"/>
        <pt x="171" y="548" on="0"/>
        <pt x="133" y="548" on="1"/>
        <pt x="127" y="548" on="1"/>
        <pt x="89" y="548" on="0"/>
        <pt x="38" y="590" on="0"/>
        <pt x="38" y="633" on="1"/>
        <pt x="38" y="662" on="1"/>
        <pt x="38" y="706" on="0"/>
        <pt x="89" y="747" on="0"/>
        <pt x="127" y="747" on="1"/>
        <pt x="133" y="747" on="1"/>
        <pt x="171" y="747" on="0"/>
        <pt x="222" y="706" on="0"/>
        <pt x="222" y="662" on="1"/>
        <pt x="222" y="633" on="1"/>
      </contour>
      <contour>
        <pt x="165" y="663" on="1"/>
        <pt x="165" y="678" on="0"/>
        <pt x="152" y="701" on="0"/>
        <pt x="133" y="701" on="1"/>
        <pt x="127" y="701" on="1"/>
        <pt x="108" y="701" on="0"/>
        <pt x="93" y="678" on="0"/>
        <pt x="93" y="663" on="1"/>
        <pt x="93" y="632" on="1"/>
        <pt x="93" y="617" on="0"/>
        <pt x="108" y="594" on="0"/>
        <pt x="127" y="594" on="1"/>
        <pt x="133" y="594" on="1"/>
        <pt x="152" y="594" on="0"/>
        <pt x="165" y="617" on="0"/>
        <pt x="165" y="632" on="1"/>
      </contour>
    </TTGlyph>
    <TTGlyph name="partialdiff" xMin="65" yMin="260" xMax="165" yMax="360">
      <contour>
        <pt x="65" y="260" on="1"/>
        <pt x="65" y="360" on="1"/>
        <pt x="165" y="360" on="1"/>
        <pt x="165" y="260" on="1"/>
      </contour>
    </TTGlyph>
    <TTGlyph name="percent" xMin="40" yMin="0" xMax="430" yMax="700">
      <contour>
        <pt x="290" y="0" on="1"/>
        <pt x="178" y="0" on="1"/>
        <pt x="40" y="350" on="1"/>
        <pt x="180" y="700" on="1"/>
        <pt x="290" y="700" on="1"/>
        <pt x="430" y="350" on="1"/>
      </contour>
      <contour>
        <pt x="235" y="630" on="1"/>
        <pt x="127" y="350" on="1"/>
        <pt x="235" y="70" on="1"/>
        <pt x="343" y="350" on="1"/>
      </contour>
    </TTGlyph>
    <TTGlyph name="period" xMin="80" yMin="0" xMax="165" yMax="500">
      <contour>
        <pt x="80" y="0" on="1"/>
        <pt x="80" y="500" on="1"/>
        <pt x="165" y="500" on="1"/>
        <pt x="165" y="0" on="1"/>
      </contour>
    </TTGlyph>
    <TTGlyph name="periodcentered" xMin="65" yMin="260" xMax="165" yMax="360">
      <contour>
        <pt x="65" y="260" on="1"/>
        <pt x="65" y="360" on="1"/>
        <pt x="165" y="360" on="1"/>
        <pt x="165" y="260" on="1"/>
      </contour>
    </TTGlyph>
    <TTGlyph name="perthousand" xMin="65" yMin="260" xMax="165" yMax="360">
      <contour>
        <pt x="65" y="260" on="1"/>
        <pt x="65" y="360" on="1"/>
        <pt x="165" y="360" on="1"/>
        <pt x="165" y="260" on="1"/>
      </contour>
    </TTGlyph>
    <TTGlyph name="pi" xMin="65" yMin="260" xMax="165" yMax="360">
      <contour>
        <pt x="65" y="260" on="1"/>
        <pt x="65" y="360" on="1"/>
        <pt x="165" y="360" on="1"/>
        <pt x="165" y="260" on="1"/>
      </contour>
    </TTGlyph>
    <TTGlyph name="plus" xMin="75" yMin="-180" xMax="252" yMax="60">
      <contour>
        <pt x="163" y="-180" on="1"/>
        <pt x="150" y="-180" on="0"/>
        <pt x="119" y="-175" on="0"/>
        <pt x="93" y="-156" on="0"/>
        <pt x="75" y="-118" on="0"/>
        <pt x="75" y="-85" on="1"/>
        <pt x="75" y="60" on="1"/>
        <pt x="149" y="60" on="1"/>
        <pt x="149" y="-85" on="1"/>
        <pt x="149" y="-102" on="0"/>
        <pt x="165" y="-113" on="0"/>
        <pt x="181" y="-113" on="1"/>
        <pt x="252" y="-113" on="1"/>
        <pt x="252" y="-180" on="1"/>
      </contour>
    </TTGlyph>
    <TTGlyph name="plusminus" xMin="65" yMin="260" xMax="165" yMax="360">
      <contour>
        <pt x="65" y="260" on="1"/>
        <pt x="65" y="360" on="1"/>
        <pt x="165" y="360" on="1"/>
        <pt x="165" y="260" on="1"/>
      </contour>
    </TTGlyph>
    <TTGlyph name="product" xMin="65" yMin="260" xMax="165" yMax="360">
      <contour>
        <pt x="65" y="260" on="1"/>
        <pt x="65" y="360" on="1"/>
        <pt x="165" y="360" on="1"/>
        <pt x="165" y="260" on="1"/>
      </contour>
    </TTGlyph>
    <TTGlyph name="q" xMin="71" yMin="161" xMax="484" yMax="574">
      <contour>
        <pt x="386" y="318" on="1"/>
        <pt x="411" y="534" on="1"/>
        <pt x="484" y="461" on="1"/>
        <pt x="449" y="196" on="1"/>
        <pt x="183" y="161" on="1"/>
        <pt x="110" y="234" on="1"/>
        <pt x="327" y="258" on="1"/>
        <pt x="71" y="514" on="1"/>
        <pt x="131" y="574" on="1"/>
      </contour>
    </TTGlyph>
    <TTGlyph name="question" xMin="29" yMin="46" xMax="541" yMax="558">
      <contour>
        <pt x="100" y="174" on="1"/>
        <pt x="88" y="206" on="0"/>
        <pt x="88" y="252" on="1"/>
        <pt x="88" y="350" on="1"/>
        <pt x="88" y="398" on="0"/>
        <pt x="100" y="429" on="1"/>
        <pt x="29" y="501" on="1"/>
        <pt x="86" y="558" on="1"/>
        <pt x="154" y="490" on="1"/>
        <pt x="191" y="510" on="0"/>
        <pt x="258" y="510" on="1"/>
        <pt x="311" y="510" on="1"/>
        <pt x="376" y="510" on="0"/>
        <pt x="415" y="489" on="1"/>
        <pt x="484" y="558" on="1"/>
        <pt x="541" y="501" on="1"/>
        <pt x="468" y="428" on="1"/>
        <pt x="481" y="398" on="0"/>
        <pt x="481" y="350" on="1"/>
        <pt x="481" y="252" on="1"/>
        <pt x="481" y="207" on="0"/>
        <pt x="469" y="175" on="1"/>
        <pt x="541" y="103" on="1"/>
        <pt x="484" y="46" on="1"/>
        <pt x="417" y="113" on="1"/>
        <pt x="377" y="92" on="0"/>
        <pt x="311" y="92" on="1"/>
        <pt x="258" y="92" on="1"/>
        <pt x="225" y="92" on="0"/>
        <pt x="173" y="102" on="0"/>
        <pt x="153" y="113" on="1"/>
        <pt x="86" y="46" on="1"/>
        <pt x="29" y="103" on="1"/>
      </contour>
      <contour>
        <pt x="396" y="370" on="1"/>
        <pt x="396" y="400" on="0"/>
        <pt x="359" y="435" on="0"/>
        <pt x="321" y="435" on="1"/>
        <pt x="248" y="435" on="1"/>
        <pt x="210" y="435" on="0"/>
        <pt x="173" y="400" on="0"/>
        <pt x="173" y="370" on="1"/>
        <pt x="173" y="232" on="1"/>
        <pt x="173" y="202" on="0"/>
        <pt x="210" y="167" on="0"/>
        <pt x="248" y="167" on="1"/>
        <pt x="321" y="167" on="1"/>
        <pt x="359" y="167" on="0"/>
        <pt x="396" y="202" on="0"/>
        <pt x="396" y="232" on="1"/>
      </contour>
    </TTGlyph>
    <TTGlyph name="questiondown" xMin="65" yMin="260" xMax="165" yMax="360">
      <contour>
        <pt x="65" y="260" on="1"/>
        <pt x="65" y="360" on="1"/>
        <pt x="165" y="360" on="1"/>
        <pt x="165" y="260" on="1"/>
      </contour>
    </TTGlyph>
    <TTGlyph name="quotedbl" xMin="85" yMin="170" xMax="425" yMax="458">
      <contour>
        <pt x="85" y="423" on="1"/>
        <pt x="107" y="433" on="0"/>
        <pt x="126" y="441" on="1"/>
        <pt x="143" y="448" on="0"/>
        <pt x="175" y="458" on="0"/>
        <pt x="182" y="458" on="1"/>
        <pt x="197" y="458" on="1"/>
        <pt x="206" y="458" on="0"/>
        <pt x="243" y="446" on="0"/>
        <pt x="283" y="431" on="0"/>
        <pt x="319" y="418" on="0"/>
        <pt x="328" y="418" on="1"/>
        <pt x="338" y="418" on="1"/>
        <pt x="343" y="418" on="0"/>
        <pt x="371" y="429" on="0"/>
        <pt x="386" y="436" on="1"/>
        <pt x="404" y="444" on="0"/>
        <pt x="425" y="454" on="1"/>
        <pt x="425" y="374" on="1"/>
        <pt x="405" y="365" on="0"/>
        <pt x="387" y="357" on="1"/>
        <pt x="372" y="350" on="0"/>
        <pt x="344" y="339" on="0"/>
        <pt x="337" y="339" on="1"/>
        <pt x="322" y="339" on="1"/>
        <pt x="317" y="339" on="0"/>
        <pt x="281" y="352" on="0"/>
        <pt x="238" y="367" on="0"/>
        <pt x="200" y="379" on="0"/>
        <pt x="192" y="379" on="1"/>
        <pt x="182" y="379" on="1"/>
        <pt x="177" y="379" on="0"/>
        <pt x="145" y="368" on="0"/>
        <pt x="128" y="361" on="1"/>
        <pt x="108" y="353" on="0"/>
        <pt x="85" y="343" on="1"/>
      </contour>
      <contour>
        <pt x="85" y="254" on="1"/>
        <pt x="107" y="264" on="0"/>
        <pt x="126" y="272" on="1"/>
        <pt x="143" y="279" on="0"/>
        <pt x="175" y="289" on="0"/>
        <pt x="182" y="289" on="1"/>
        <pt x="197" y="289" on="1"/>
        <pt x="206" y="289" on="0"/>
        <pt x="243" y="277" on="0"/>
        <pt x="283" y="262" on="0"/>
        <pt x="319" y="249" on="0"/>
        <pt x="328" y="249" on="1"/>
        <pt x="338" y="249" on="1"/>
        <pt x="343" y="249" on="0"/>
        <pt x="371" y="260" on="0"/>
        <pt x="386" y="267" on="1"/>
        <pt x="404" y="275" on="0"/>
        <pt x="425" y="285" on="1"/>
        <pt x="425" y="205" on="1"/>
        <pt x="405" y="196" on="0"/>
        <pt x="387" y="188" on="1"/>
        <pt x="372" y="181" on="0"/>
        <pt x="344" y="170" on="0"/>
        <pt x="337" y="170" on="1"/>
        <pt x="322" y="170" on="1"/>
        <pt x="317" y="170" on="0"/>
        <pt x="281" y="183" on="0"/>
        <pt x="238" y="198" on="0"/>
        <pt x="200" y="210" on="0"/>
        <pt x="192" y="210" on="1"/>
        <pt x="182" y="210" on="1"/>
        <pt x="177" y="210" on="0"/>
        <pt x="145" y="199" on="0"/>
        <pt x="128" y="192" on="1"/>
        <pt x="108" y="184" on="0"/>
        <pt x="85" y="174" on="1"/>
      </contour>
    </TTGlyph>
    <TTGlyph name="quotedblbase" xMin="65" yMin="260" xMax="165" yMax="360">
      <contour>
        <pt x="65" y="260" on="1"/>
        <pt x="65" y="360" on="1"/>
        <pt x="165" y="360" on="1"/>
        <pt x="165" y="260" on="1"/>
      </contour>
    </TTGlyph>
    <TTGlyph name="quotedblleft" xMin="65" yMin="260" xMax="165" yMax="360">
      <contour>
        <pt x="65" y="260" on="1"/>
        <pt x="65" y="360" on="1"/>
        <pt x="165" y="360" on="1"/>
        <pt x="165" y="260" on="1"/>
      </contour>
    </TTGlyph>
    <TTGlyph name="quotedblright" xMin="65" yMin="260" xMax="165" yMax="360">
      <contour>
        <pt x="65" y="260" on="1"/>
        <pt x="65" y="360" on="1"/>
        <pt x="165" y="360" on="1"/>
        <pt x="165" y="260" on="1"/>
      </contour>
    </TTGlyph>
    <TTGlyph name="quoteleft" xMin="65" yMin="260" xMax="165" yMax="360">
      <contour>
        <pt x="65" y="260" on="1"/>
        <pt x="65" y="360" on="1"/>
        <pt x="165" y="360" on="1"/>
        <pt x="165" y="260" on="1"/>
      </contour>
    </TTGlyph>
    <TTGlyph name="quoteright" xMin="65" yMin="260" xMax="165" yMax="360">
      <contour>
        <pt x="65" y="260" on="1"/>
        <pt x="65" y="360" on="1"/>
        <pt x="165" y="360" on="1"/>
        <pt x="165" y="260" on="1"/>
      </contour>
    </TTGlyph>
    <TTGlyph name="quotesinglbase" xMin="65" yMin="260" xMax="165" yMax="360">
      <contour>
        <pt x="65" y="260" on="1"/>
        <pt x="65" y="360" on="1"/>
        <pt x="165" y="360" on="1"/>
        <pt x="165" y="260" on="1"/>
      </contour>
    </TTGlyph>
    <TTGlyph name="quotesingle" xMin="65" yMin="260" xMax="165" yMax="360">
      <contour>
        <pt x="65" y="260" on="1"/>
        <pt x="65" y="360" on="1"/>
        <pt x="165" y="360" on="1"/>
        <pt x="165" y="260" on="1"/>
      </contour>
    </TTGlyph>
    <TTGlyph name="r" xMin="72" yMin="167" xMax="485" yMax="580">
      <contour>
        <pt x="229" y="265" on="1"/>
        <pt x="445" y="240" on="1"/>
        <pt x="372" y="167" on="1"/>
        <pt x="107" y="202" on="1"/>
        <pt x="72" y="468" on="1"/>
        <pt x="145" y="541" on="1"/>
        <pt x="169" y="324" on="1"/>
        <pt x="425" y="580" on="1"/>
        <pt x="485" y="520" on="1"/>
      </contour>
    </TTGlyph>
    <TTGlyph name="radical" xMin="65" yMin="260" xMax="165" yMax="360">
      <contour>
        <pt x="65" y="260" on="1"/>
        <pt x="65" y="360" on="1"/>
        <pt x="165" y="360" on="1"/>
        <pt x="165" y="260" on="1"/>
      </contour>
    </TTGlyph>
    <TTGlyph name="registered" xMin="65" yMin="260" xMax="165" yMax="360">
      <contour>
        <pt x="65" y="260" on="1"/>
        <pt x="65" y="360" on="1"/>
        <pt x="165" y="360" on="1"/>
        <pt x="165" y="260" on="1"/>
      </contour>
    </TTGlyph>
    <TTGlyph name="ring" xMin="65" yMin="260" xMax="165" yMax="360">
      <contour>
        <pt x="65" y="260" on="1"/>
        <pt x="65" y="360" on="1"/>
        <pt x="165" y="360" on="1"/>
        <pt x="165" y="260" on="1"/>
      </contour>
    </TTGlyph>
    <TTGlyph name="s" xMin="90" yMin="0" xMax="690" yMax="700">
      <contour>
        <pt x="90" y="0" on="1"/>
        <pt x="90" y="700" on="1"/>
        <pt x="690" y="700" on="1"/>
        <pt x="690" y="0" on="1"/>
      </contour>
    </TTGlyph>
    <TTGlyph name="scaron" xMin="65" yMin="260" xMax="165" yMax="360">
      <contour>
        <pt x="65" y="260" on="1"/>
        <pt x="65" y="360" on="1"/>
        <pt x="165" y="360" on="1"/>
        <pt x="165" y="260" on="1"/>
      </contour>
    </TTGlyph>
    <TTGlyph name="section" xMin="65" yMin="260" xMax="165" yMax="360">
      <contour>
        <pt x="65" y="260" on="1"/>
        <pt x="65" y="360" on="1"/>
        <pt x="165" y="360" on="1"/>
        <pt x="165" y="260" on="1"/>
      </contour>
    </TTGlyph>
    <TTGlyph name="semicolon" xMin="65" yMin="260" xMax="165" yMax="360">
      <contour>
        <pt x="65" y="260" on="1"/>
        <pt x="65" y="360" on="1"/>
        <pt x="165" y="360" on="1"/>
        <pt x="165" y="260" on="1"/>
      </contour>
    </TTGlyph>
    <TTGlyph name="seven" xMin="36" yMin="-170" xMax="341" yMax="515">
      <contour>
        <pt x="180" y="-170" on="1"/>
        <pt x="93" y="-170" on="1"/>
        <pt x="260" y="440" on="1"/>
        <pt x="36" y="440" on="1"/>
        <pt x="36" y="515" on="1"/>
        <pt x="341" y="515" on="1"/>
        <pt x="341" y="418" on="1"/>
      </contour>
    </TTGlyph>
    <TTGlyph name="six" xMin="64" yMin="0" xMax="405" yMax="700">
      <contour>
        <pt x="405" y="170" on="1"/>
        <pt x="405" y="127" on="0"/>
        <pt x="380" y="63" on="0"/>
        <pt x="336" y="21" on="0"/>
        <pt x="279" y="0" on="0"/>
        <pt x="247" y="0" on="1"/>
        <pt x="222" y="0" on="1"/>
        <pt x="190" y="0" on="0"/>
        <pt x="133" y="21" on="0"/>
        <pt x="89" y="63" on="0"/>
        <pt x="64" y="127" on="0"/>
        <pt x="64" y="170" on="1"/>
        <pt x="64" y="530" on="1"/>
        <pt x="64" y="616" on="0"/>
        <pt x="155" y="700" on="0"/>
        <pt x="242" y="700" on="1"/>
        <pt x="357" y="700" on="1"/>
        <pt x="357" y="624" on="1"/>
        <pt x="232" y="624" on="1"/>
        <pt x="194" y="624" on="0"/>
        <pt x="149" y="579" on="0"/>
        <pt x="149" y="549" on="1"/>
        <pt x="149" y="440" on="1"/>
        <pt x="237" y="440" on="1"/>
        <pt x="322" y="440" on="0"/>
        <pt x="405" y="366" on="0"/>
        <pt x="405" y="280" on="1"/>
        <pt x="405" y="170" on="1"/>
      </contour>
      <contour>
        <pt x="149" y="365" on="1"/>
        <pt x="149" y="151" on="1"/>
        <pt x="149" y="121" on="0"/>
        <pt x="189" y="75" on="0"/>
        <pt x="227" y="75" on="1"/>
        <pt x="242" y="75" on="1"/>
        <pt x="280" y="75" on="0"/>
        <pt x="320" y="121" on="0"/>
        <pt x="320" y="151" on="1"/>
        <pt x="320" y="299" on="1"/>
        <pt x="320" y="329" on="0"/>
        <pt x="285" y="365" on="0"/>
        <pt x="247" y="365" on="1"/>
      </contour>
    </TTGlyph>
    <TTGlyph name="slash" xMin="-85" yMin="-100" xMax="315" yMax="810">
      <contour>
        <pt x="-5" y="-100" on="1"/>
        <pt x="-85" y="-100" on="1"/>
        <pt x="235" y="810" on="1"/>
        <pt x="315" y="810" on="1"/>
      </contour>
    </TTGlyph>
    <TTGlyph name="sterling" xMin="65" yMin="260" xMax="165" yMax="360">
      <contour>
        <pt x="65" y="260" on="1"/>
        <pt x="65" y="360" on="1"/>
        <pt x="165" y="360" on="1"/>
        <pt x="165" y="260" on="1"/>
      </contour>
    </TTGlyph>
    <TTGlyph name="summation" xMin="65" yMin="260" xMax="165" yMax="360">
      <contour>
        <pt x="65" y="260" on="1"/>
        <pt x="65" y="360" on="1"/>
        <pt x="165" y="360" on="1"/>
        <pt x="165" y="260" on="1"/>
      </contour>
    </TTGlyph>
    <TTGlyph name="t" xMin="90" yMin="-170" xMax="690" yMax="850">
      <contour>
        <pt x="90" y="-170" on="1"/>
        <pt x="90" y="850" on="1"/>
        <pt x="690" y="850" on="1"/>
        <pt x="690" y="-170" on="1"/>
      </contour>
    </TTGlyph>
    <TTGlyph name="thorn" xMin="65" yMin="260" xMax="165" yMax="360">
      <contour>
        <pt x="65" y="260" on="1"/>
        <pt x="65" y="360" on="1"/>
        <pt x="165" y="360" on="1"/>
        <pt x="165" y="260" on="1"/>
      </contour>
    </TTGlyph>
    <TTGlyph name="three" xMin="45" yMin="-170" xMax="333" yMax="515">
      <contour>
        <pt x="333" y="-12" on="1"/>
        <pt x="333" y="-95" on="0"/>
        <pt x="254" y="-170" on="0"/>
        <pt x="163" y="-170" on="1"/>
        <pt x="45" y="-170" on="1"/>
        <pt x="45" y="-95" on="1"/>
        <pt x="172" y="-95" on="1"/>
        <pt x="210" y="-95" on="0"/>
        <pt x="246" y="-60" on="0"/>
        <pt x="246" y="-22" on="1"/>
        <pt x="246" y="76" on="1"/>
        <pt x="246" y="109" on="0"/>
        <pt x="205" y="148" on="0"/>
        <pt x="173" y="148" on="1"/>
        <pt x="76" y="148" on="1"/>
        <pt x="76" y="223" on="1"/>
        <pt x="163" y="223" on="1"/>
        <pt x="193" y="223" on="0"/>
        <pt x="236" y="262" on="0"/>
        <pt x="236" y="296" on="1"/>
        <pt x="236" y="368" on="1"/>
        <pt x="236" y="406" on="0"/>
        <pt x="201" y="440" on="0"/>
        <pt x="163" y="440" on="1"/>
        <pt x="45" y="440" on="1"/>
        <pt x="45" y="515" on="1"/>
        <pt x="151" y="515" on="1"/>
        <pt x="234" y="515" on="0"/>
        <pt x="323" y="442" on="0"/>
        <pt x="323" y="359" on="1"/>
        <pt x="323" y="306" on="1"/>
        <pt x="323" y="266" on="0"/>
        <pt x="294" y="208" on="0"/>
        <pt x="268" y="190" on="1"/>
        <pt x="300" y="173" on="0"/>
        <pt x="333" y="112" on="0"/>
        <pt x="333" y="67" on="1"/>
        <pt x="333" y="-12" on="1"/>
      </contour>
    </TTGlyph>
    <TTGlyph name="threequarters" xMin="65" yMin="260" xMax="165" yMax="360">
      <contour>
        <pt x="65" y="260" on="1"/>
        <pt x="65" y="360" on="1"/>
        <pt x="165" y="360" on="1"/>
        <pt x="165" y="260" on="1"/>
      </contour>
    </TTGlyph>
    <TTGlyph name="threesuperior" xMin="65" yMin="260" xMax="165" yMax="360">
      <contour>
        <pt x="65" y="260" on="1"/>
        <pt x="65" y="360" on="1"/>
        <pt x="165" y="360" on="1"/>
        <pt x="165" y="260" on="1"/>
      </contour>
    </TTGlyph>
    <TTGlyph name="tilde" xMin="65" yMin="260" xMax="165" yMax="360">
      <contour>
        <pt x="65" y="260" on="1"/>
        <pt x="65" y="360" on="1"/>
        <pt x="165" y="360" on="1"/>
        <pt x="165" y="260" on="1"/>
      </contour>
    </TTGlyph>
    <TTGlyph name="trademark" xMin="65" yMin="260" xMax="165" yMax="360">
      <contour>
        <pt x="65" y="260" on="1"/>
        <pt x="65" y="360" on="1"/>
        <pt x="165" y="360" on="1"/>
        <pt x="165" y="260" on="1"/>
      </contour>
    </TTGlyph>
    <TTGlyph name="two" xMin="44" yMin="0" xMax="360" yMax="500">
      <contour>
        <pt x="44" y="0" on="1"/>
        <pt x="44" y="88" on="1"/>
        <pt x="212" y="237" on="1"/>
        <pt x="226" y="249" on="0"/>
        <pt x="243" y="269" on="0"/>
        <pt x="253" y="290" on="0"/>
        <pt x="257" y="313" on="0"/>
        <pt x="257" y="329" on="1"/>
        <pt x="257" y="369" on="1"/>
        <pt x="257" y="392" on="0"/>
        <pt x="227" y="424" on="0"/>
        <pt x="189" y="424" on="1"/>
        <pt x="64" y="424" on="1"/>
        <pt x="64" y="500" on="1"/>
        <pt x="179" y="500" on="1"/>
        <pt x="217" y="500" on="0"/>
        <pt x="278" y="486" on="0"/>
        <pt x="321" y="453" on="0"/>
        <pt x="344" y="399" on="0"/>
        <pt x="344" y="360" on="1"/>
        <pt x="344" y="338" on="1"/>
        <pt x="344" y="312" on="0"/>
        <pt x="340" y="272" on="0"/>
        <pt x="326" y="237" on="0"/>
        <pt x="298" y="202" on="0"/>
        <pt x="273" y="180" on="1"/>
        <pt x="155" y="76" on="1"/>
        <pt x="360" y="76" on="1"/>
        <pt x="360" y="0" on="1"/>
      </contour>
    </TTGlyph>
    <TTGlyph name="twosuperior" xMin="65" yMin="260" xMax="165" yMax="360">
      <contour>
        <pt x="65" y="260" on="1"/>
        <pt x="65" y="360" on="1"/>
        <pt x="165" y="360" on="1"/>
        <pt x="165" y="260" on="1"/>
      </contour>
    </TTGlyph>
    <TTGlyph name="u" xMin="78" yMin="0" xMax="419" yMax="750">
      <contour>
        <pt x="244" y="566" on="1"/>
        <pt x="162" y="566" on="1"/>
        <pt x="197" y="626" on="1"/>
        <pt x="126" y="626" on="1"/>
        <pt x="126" y="700" on="1"/>
        <pt x="240" y="700" on="1"/>
        <pt x="270" y="750" on="1"/>
        <pt x="352" y="750" on="1"/>
        <pt x="316" y="690" on="1"/>
        <pt x="419" y="658" on="0"/>
        <pt x="419" y="530" on="1"/>
        <pt x="419" y="170" on="1"/>
        <pt x="419" y="127" on="0"/>
        <pt x="394" y="63" on="0"/>
        <pt x="350" y="21" on="0"/>
        <pt x="293" y="0" on="0"/>
        <pt x="261" y="0" on="1"/>
        <pt x="236" y="0" on="1"/>
        <pt x="204" y="0" on="0"/>
        <pt x="147" y="21" on="0"/>
        <pt x="103" y="63" on="0"/>
        <pt x="78" y="127" on="0"/>
        <pt x="78" y="170" on="1"/>
        <pt x="78" y="300" on="1"/>
        <pt x="78" y="386" on="0"/>
        <pt x="161" y="460" on="0"/>
        <pt x="246" y="460" on="1"/>
        <pt x="334" y="460" on="1"/>
        <pt x="334" y="549" on="1"/>
        <pt x="334" y="573" on="0"/>
        <pt x="303" y="614" on="0"/>
        <pt x="277" y="622" on="1"/>
      </contour>
      <contour>
        <pt x="236" y="385" on="1"/>
        <pt x="198" y="385" on="0"/>
        <pt x="163" y="349" on="0"/>
        <pt x="163" y="319" on="1"/>
        <pt x="163" y="151" on="1"/>
        <pt x="163" y="121" on="0"/>
        <pt x="203" y="75" on="0"/>
        <pt x="241" y="75" on="1"/>
        <pt x="256" y="75" on="1"/>
        <pt x="294" y="75" on="0"/>
        <pt x="334" y="121" on="0"/>
        <pt x="334" y="151" on="1"/>
        <pt x="334" y="385" on="1"/>
      </contour>
    </TTGlyph>
    <TTGlyph name="uacute" xMin="65" yMin="260" xMax="165" yMax="360">
      <contour>
        <pt x="65" y="260" on="1"/>
        <pt x="65" y="360" on="1"/>
        <pt x="165" y="360" on="1"/>
        <pt x="165" y="260" on="1"/>
      </contour>
    </TTGlyph>
    <TTGlyph name="ucircumflex" xMin="65" yMin="260" xMax="165" yMax="360">
      <contour>
        <pt x="65" y="260" on="1"/>
        <pt x="65" y="360" on="1"/>
        <pt x="165" y="360" on="1"/>
        <pt x="165" y="260" on="1"/>
      </contour>
    </TTGlyph>
    <TTGlyph name="udieresis" xMin="65" yMin="260" xMax="165" yMax="360">
      <contour>
        <pt x="65" y="260" on="1"/>
        <pt x="65" y="360" on="1"/>
        <pt x="165" y="360" on="1"/>
        <pt x="165" y="260" on="1"/>
      </contour>
    </TTGlyph>
    <TTGlyph name="ugrave" xMin="65" yMin="260" xMax="165" yMax="360">
      <contour>
        <pt x="65" y="260" on="1"/>
        <pt x="65" y="360" on="1"/>
        <pt x="165" y="360" on="1"/>
        <pt x="165" y="260" on="1"/>
      </contour>
    </TTGlyph>
    <TTGlyph name="underscore" xMin="26" yMin="-170" xMax="431" yMax="700">
      <contour>
        <pt x="311" y="-95" on="1"/>
        <pt x="328" y="-95" on="0"/>
        <pt x="346" y="-78" on="0"/>
        <pt x="346" y="-65" on="1"/>
        <pt x="346" y="425" on="1"/>
        <pt x="176" y="425" on="1"/>
        <pt x="176" y="0" on="1"/>
        <pt x="91" y="0" on="1"/>
        <pt x="91" y="425" on="1"/>
        <pt x="26" y="425" on="1"/>
        <pt x="26" y="500" on="1"/>
        <pt x="91" y="500" on="1"/>
        <pt x="91" y="590" on="1"/>
        <pt x="91" y="643" on="0"/>
        <pt x="150" y="700" on="0"/>
        <pt x="195" y="700" on="1"/>
        <pt x="410" y="700" on="1"/>
        <pt x="410" y="625" on="1"/>
        <pt x="211" y="625" on="1"/>
        <pt x="194" y="625" on="0"/>
        <pt x="176" y="608" on="0"/>
        <pt x="176" y="595" on="1"/>
        <pt x="176" y="500" on="1"/>
        <pt x="431" y="500" on="1"/>
        <pt x="431" y="-60" on="1"/>
        <pt x="431" y="-113" on="0"/>
        <pt x="372" y="-170" on="0"/>
        <pt x="327" y="-170" on="1"/>
        <pt x="220" y="-170" on="1"/>
        <pt x="220" y="-95" on="1"/>
      </contour>
    </TTGlyph>
    <TTGlyph name="uni00AD" xMin="85" yMin="275" xMax="410" yMax="350">
      <contour>
        <pt x="85" y="275" on="1"/>
        <pt x="85" y="350" on="1"/>
        <pt x="410" y="350" on="1"/>
        <pt x="410" y="275" on="1"/>
      </contour>
    </TTGlyph>
    <TTGlyph name="uni2219" xMin="65" yMin="260" xMax="165" yMax="360">
      <contour>
        <pt x="65" y="260" on="1"/>
        <pt x="65" y="360" on="1"/>
        <pt x="165" y="360" on="1"/>
        <pt x="165" y="260" on="1"/>
      </contour>
    </TTGlyph>
    <TTGlyph name="uni2224" xMin="65" yMin="260" xMax="165" yMax="360">
      <contour>
        <pt x="65" y="260" on="1"/>
        <pt x="65" y="360" on="1"/>
        <pt x="165" y="360" on="1"/>
        <pt x="165" y="260" on="1"/>
      </contour>
    </TTGlyph>
    <TTGlyph name="uni25AF" xMin="50" yMin="0" xMax="450" yMax="700">
      <contour>
        <pt x="50" y="700" on="1"/>
        <pt x="450" y="700" on="1"/>
        <pt x="450" y="0" on="1"/>
        <pt x="50" y="0" on="1"/>
      </contour>
      <contour>
        <pt x="400" y="50" on="1"/>
        <pt x="400" y="650" on="1"/>
        <pt x="100" y="650" on="1"/>
        <pt x="100" y="50" on="1"/>
      </contour>
    </TTGlyph>
    <TTGlyph name="v" xMin="35" yMin="0" xMax="231" yMax="700">
      <contour>
        <pt x="170" y="0" on="1"/>
        <pt x="155" y="0" on="0"/>
        <pt x="125" y="10" on="0"/>
        <pt x="101" y="33" on="0"/>
        <pt x="85" y="72" on="0"/>
        <pt x="85" y="100" on="1"/>
        <pt x="85" y="332" on="1"/>
        <pt x="35" y="300" on="1"/>
        <pt x="35" y="378" on="1"/>
        <pt x="85" y="411" on="1"/>
        <pt x="85" y="700" on="1"/>
        <pt x="170" y="700" on="1"/>
        <pt x="170" y="467" on="1"/>
        <pt x="231" y="508" on="1"/>
        <pt x="231" y="428" on="1"/>
        <pt x="170" y="388" on="1"/>
        <pt x="170" y="105" on="1"/>
        <pt x="170" y="89" on="0"/>
        <pt x="185" y="75" on="0"/>
        <pt x="205" y="75" on="1"/>
        <pt x="225" y="75" on="1"/>
        <pt x="225" y="0" on="1"/>
      </contour>
    </TTGlyph>
    <TTGlyph name="w" xMin="80" yMin="-170" xMax="426" yMax="700">
      <contour>
        <pt x="80" y="-170" on="1"/>
        <pt x="80" y="700" on="1"/>
        <pt x="165" y="700" on="1"/>
        <pt x="165" y="-170" on="1"/>
      </contour>
      <contour>
        <pt x="426" y="160" on="1"/>
        <pt x="426" y="74" on="0"/>
        <pt x="343" y="0" on="0"/>
        <pt x="256" y="0" on="1"/>
        <pt x="135" y="0" on="1"/>
        <pt x="135" y="75" on="1"/>
        <pt x="266" y="75" on="1"/>
        <pt x="304" y="75" on="0"/>
        <pt x="341" y="110" on="0"/>
        <pt x="341" y="140" on="1"/>
        <pt x="341" y="360" on="1"/>
        <pt x="341" y="390" on="0"/>
        <pt x="304" y="425" on="0"/>
        <pt x="266" y="425" on="1"/>
        <pt x="230" y="425" on="1"/>
        <pt x="211" y="425" on="0"/>
        <pt x="186" y="413" on="0"/>
        <pt x="171" y="397" on="0"/>
        <pt x="165" y="378" on="0"/>
        <pt x="165" y="370" on="1"/>
        <pt x="108" y="399" on="1"/>
        <pt x="125" y="453" on="0"/>
        <pt x="195" y="500" on="0"/>
        <pt x="240" y="500" on="1"/>
        <pt x="256" y="500" on="1"/>
        <pt x="343" y="500" on="0"/>
        <pt x="426" y="427" on="0"/>
        <pt x="426" y="340" on="1"/>
        <pt x="426" y="160" on="1"/>
      </contour>
    </TTGlyph>
    <TTGlyph name="x" xMin="54" yMin="0" xMax="367" yMax="714">
      <contour>
        <pt x="343" y="125" on="1"/>
        <pt x="343" y="60" on="0"/>
        <pt x="265" y="0" on="0"/>
        <pt x="193" y="0" on="1"/>
        <pt x="64" y="0" on="1"/>
        <pt x="64" y="75" on="1"/>
        <pt x="203" y="75" on="1"/>
        <pt x="258" y="75" on="0"/>
        <pt x="258" y="120" on="1"/>
        <pt x="258" y="173" on="1"/>
        <pt x="258" y="218" on="0"/>
        <pt x="215" y="218" on="1"/>
        <pt x="198" y="218" on="1"/>
        <pt x="129" y="218" on="0"/>
        <pt x="59" y="277" on="0"/>
        <pt x="59" y="345" on="1"/>
        <pt x="59" y="374" on="1"/>
        <pt x="59" y="444" on="0"/>
        <pt x="137" y="500" on="0"/>
        <pt x="209" y="500" on="1"/>
        <pt x="323" y="500" on="1"/>
        <pt x="323" y="425" on="1"/>
        <pt x="199" y="425" on="1"/>
        <pt x="175" y="425" on="0"/>
        <pt x="144" y="403" on="0"/>
        <pt x="144" y="380" on="1"/>
        <pt x="144" y="344" on="1"/>
        <pt x="144" y="320" on="0"/>
        <pt x="173" y="299" on="0"/>
        <pt x="192" y="299" on="1"/>
        <pt x="206" y="299" on="1"/>
        <pt x="273" y="299" on="0"/>
        <pt x="343" y="234" on="0"/>
        <pt x="343" y="170" on="1"/>
        <pt x="343" y="125" on="1"/>
      </contour>
      <contour>
        <pt x="151" y="714" on="1"/>
        <pt x="211" y="639" on="1"/>
        <pt x="271" y="714" on="1"/>
        <pt x="367" y="714" on="1"/>
        <pt x="255" y="579" on="1"/>
        <pt x="167" y="579" on="1"/>
        <pt x="54" y="714" on="1"/>
      </contour>
    </TTGlyph>
    <TTGlyph name="y" xMin="35" yMin="-175" xMax="428" yMax="715">
      <contour>
        <pt x="193" y="580" on="1"/>
        <pt x="297" y="715" on="1"/>
        <pt x="406" y="715" on="1"/>
        <pt x="279" y="580" on="1"/>
      </contour>
      <contour>
        <pt x="283" y="-44" on="1"/>
        <pt x="275" y="-73" on="0"/>
        <pt x="257" y="-122" on="0"/>
        <pt x="230" y="-156" on="0"/>
        <pt x="189" y="-175" on="0"/>
        <pt x="159" y="-175" on="1"/>
        <pt x="143" y="-175" on="0"/>
        <pt x="111" y="-171" on="0"/>
        <pt x="102" y="-169" on="1"/>
        <pt x="102" y="-96" on="1"/>
        <pt x="113" y="-98" on="0"/>
        <pt x="139" y="-100" on="0"/>
        <pt x="154" y="-100" on="1"/>
        <pt x="182" y="-100" on="0"/>
        <pt x="194" y="-55" on="1"/>
        <pt x="210" y="0" on="1"/>
        <pt x="190" y="0" on="1"/>
        <pt x="35" y="500" on="1"/>
        <pt x="127" y="500" on="1"/>
        <pt x="243" y="87" on="1"/>
        <pt x="341" y="500" on="1"/>
        <pt x="428" y="500" on="1"/>
      </contour>
    </TTGlyph>
    <TTGlyph name="yacute" xMin="65" yMin="260" xMax="165" yMax="360">
      <contour>
        <pt x="65" y="260" on="1"/>
        <pt x="65" y="360" on="1"/>
        <pt x="165" y="360" on="1"/>
        <pt x="165" y="260" on="1"/>
      </contour>
    </TTGlyph>
    <TTGlyph name="ydieresis" xMin="65" yMin="260" xMax="165" yMax="360">
      <contour>
        <pt x="65" y="260" on="1"/>
        <pt x="65" y="360" on="1"/>
        <pt x="165" y="360" on="1"/>
        <pt x="165" y="260" on="1"/>
      </contour>
    </TTGlyph>
    <TTGlyph name="yen" xMin="65" yMin="260" xMax="165" yMax="360">
      <contour>
        <pt x="65" y="260" on="1"/>
        <pt x="65" y="360" on="1"/>
        <pt x="165" y="360" on="1"/>
        <pt x="165" y="260" on="1"/>
      </contour>
    </TTGlyph>
    <TTGlyph name="z" xMin="45" yMin="0" xMax="373" yMax="714">
      <contour>
        <pt x="137" y="74" on="1"/>
        <pt x="343" y="74" on="1"/>
        <pt x="343" y="0" on="1"/>
        <pt x="45" y="0" on="1"/>
        <pt x="45" y="80" on="1"/>
        <pt x="262" y="426" on="1"/>
        <pt x="65" y="426" on="1"/>
        <pt x="65" y="500" on="1"/>
        <pt x="353" y="500" on="1"/>
        <pt x="353" y="411" on="1"/>
      </contour>
      <contour>
        <pt x="157" y="714" on="1"/>
        <pt x="217" y="639" on="1"/>
        <pt x="277" y="714" on="1"/>
        <pt x="373" y="714" on="1"/>
        <pt x="261" y="579" on="1"/>
        <pt x="173" y="579" on="1"/>
        <pt x="60" y="714" on="1"/>
      </contour>
    </TTGlyph>
    <TTGlyph name="zcaron" xMin="65" yMin="260" xMax="165" yMax="360">
      <contour>
        <pt x="65" y="260" on="1"/>
        <pt x="65" y="360" on="1"/>
        <pt x="165" y="360" on="1"/>
        <pt x="165" y="260" on="1"/>
      </contour>
    </TTGlyph>
    <TTGlyph name="zero" xMin="59" yMin="0" xMax="417" yMax="500">
      <contour>
        <pt x="417" y="170" on="1"/>
        <pt x="417" y="84" on="0"/>
        <pt x="328" y="0" on="0"/>
        <pt x="249" y="0" on="1"/>
        <pt x="237" y="0" on="1"/>
        <pt x="159" y="0" on="0"/>
        <pt x="59" y="85" on="0"/>
        <pt x="59" y="170" on="1"/>
        <pt x="59" y="330" on="1"/>
        <pt x="59" y="416" on="0"/>
        <pt x="158" y="500" on="0"/>
        <pt x="237" y="500" on="1"/>
        <pt x="249" y="500" on="1"/>
        <pt x="329" y="500" on="0"/>
        <pt x="417" y="416" on="0"/>
        <pt x="417" y="330" on="1"/>
        <pt x="417" y="170" on="1"/>
      </contour>
      <contour>
        <pt x="332" y="349" on="1"/>
        <pt x="332" y="379" on="0"/>
        <pt x="287" y="425" on="0"/>
        <pt x="249" y="425" on="1"/>
        <pt x="227" y="425" on="1"/>
        <pt x="189" y="425" on="0"/>
        <pt x="144" y="379" on="0"/>
        <pt x="144" y="349" on="1"/>
        <pt x="144" y="151" on="1"/>
        <pt x="144" y="121" on="0"/>
        <pt x="189" y="75" on="0"/>
        <pt x="227" y="75" on="1"/>
        <pt x="249" y="75" on="1"/>
        <pt x="287" y="75" on="0"/>
        <pt x="332" y="121" on="0"/>
        <pt x="332" y="151" on="1"/>
      </contour>
    </TTGlyph>
</ttFont>
